<svg width="58" height="58" viewBox="0 0 58 58" fill="none" xmlns="http://www.w3.org/2000/svg">
<g filter="url(#filter0_d)">
<path d="M22.879 21.3626C22.4241 20.8555 21.7764 20.5584 21.1021 20.5478C19.7459 20.5301 18.6239 21.6314 18.6009 23.0116C18.5936 23.4566 18.9417 23.8233 19.3785 23.8308C19.3831 23.8309 19.3875 23.8309 19.3922 23.8309C19.8228 23.8309 20.1755 23.4791 20.1828 23.0388C20.1909 22.5458 20.5887 22.1503 21.0773 22.1589C21.3213 22.1628 21.5463 22.2659 21.7109 22.4494C22.0056 22.778 22.506 22.801 22.8284 22.5008C23.151 22.2008 23.1736 21.6911 22.879 21.3626Z" fill="#263238"/>
<path d="M27.0874 23.9883C26.8449 23.4078 26.373 22.9496 25.7922 22.7312C24.6242 22.2924 23.3222 22.9023 22.8895 24.0904C22.7375 24.5077 22.9464 24.9713 23.3559 25.1261C23.4466 25.1604 23.5396 25.1766 23.6309 25.1766C23.9523 25.1766 24.2543 24.9757 24.3727 24.6509C24.5026 24.294 24.8942 24.1114 25.2444 24.243C25.4204 24.3092 25.5579 24.4427 25.6314 24.6189C25.8024 25.0282 26.2671 25.2192 26.6689 25.045C27.0711 24.8709 27.2583 24.3978 27.0874 23.9883Z" fill="#263238"/>
<path d="M32.1857 16.8528C31.8765 16.5384 31.3756 16.539 31.0671 16.854L30.3214 17.615C30.0128 17.9299 30.0134 18.4401 30.3226 18.7543C30.4769 18.9112 30.6791 18.9896 30.8813 18.9896C31.084 18.9896 31.2867 18.9108 31.4412 18.7531L32.1869 17.9921C32.4955 17.6772 32.4949 17.167 32.1857 16.8528Z" fill="#263238"/>
<path d="M27.2645 27.2538H26.2102C25.7732 27.2538 25.4192 27.6145 25.4192 28.0595C25.4192 28.5044 25.7732 28.8651 26.2102 28.8651H27.2645C27.7014 28.8651 28.0555 28.5044 28.0555 28.0595C28.0555 27.6145 27.7014 27.2538 27.2645 27.2538Z" fill="#263238"/>
<path d="M35.3481 27.2538H34.2937C33.8567 27.2538 33.5027 27.6145 33.5027 28.0595C33.5027 28.5044 33.8568 28.8651 34.2937 28.8651H35.3481C35.7849 28.8651 36.1391 28.5044 36.1391 28.0595C36.1391 27.6145 35.7849 27.2538 35.3481 27.2538Z" fill="#263238"/>
<path d="M55.9746 41.7807L55.7686 40.6483C55.6373 39.9247 55.0169 39.3995 54.2935 39.3995C54.2027 39.3995 54.1112 39.408 54.0211 39.4249L49.8277 40.2095L51.7267 38.9164C52.2244 38.5776 52.476 37.9716 52.3675 37.3703C52.3373 37.2056 52.2808 37.0476 52.1989 36.8997L51.6242 35.8632C51.4273 35.5071 51.0915 35.2425 50.7039 35.1377C50.5141 35.0861 50.3156 35.0746 50.1219 35.1003C50.3334 33.9116 50.4425 32.6975 50.4425 31.4616C50.4425 30.9132 50.1187 30.4413 49.6562 30.2317C50.2605 28.7678 50.3018 27.0918 49.7044 25.557C49.656 25.4321 49.584 25.3207 49.4909 25.2258C49.3985 25.1317 49.2904 25.059 49.1678 25.0088C48.4519 24.7184 47.6996 24.5713 46.9317 24.5713C46.8335 24.5713 46.7358 24.5738 46.6383 24.5786C46.5287 22.3299 44.7015 20.5348 42.4708 20.5348C42.1771 20.5348 41.8907 20.5666 41.614 20.6259C41.8062 19.455 41.693 18.2301 41.2453 17.08C41.1972 16.9536 41.125 16.8401 41.0268 16.7385C40.9323 16.6423 40.8214 16.568 40.6984 16.5183C39.9274 16.2055 39.1169 16.0469 38.2896 16.0469C37.0434 16.0469 35.8513 16.4038 34.8222 17.0672C34.4462 15.9579 33.8261 14.9164 32.9598 14.032C32.706 13.7732 32.3686 13.6305 32.0094 13.6305C31.6503 13.6305 31.3128 13.7732 31.0587 14.0323L27.2289 17.942C26.5201 17.2981 25.5875 16.9132 24.5752 16.9132C24.3455 16.9132 24.1135 16.9337 23.8858 16.9741C23.0608 17.1204 22.3015 17.5317 21.7194 18.1341C20.973 17.7673 20.118 17.6422 19.2963 17.7878C19.1155 17.8198 18.9401 17.8649 18.7699 17.9199V14.9072C18.7699 12.8325 17.1327 11.1415 15.1075 11.1059V9.39723C15.7274 9.28798 16.2008 8.73766 16.2008 8.07552V4.20416C16.2008 3.46381 15.6094 2.86139 14.8824 2.86139H8.44981C7.72282 2.86139 7.13146 3.46381 7.13146 4.20416V8.07552C7.13146 8.73766 7.6048 9.28798 8.22474 9.39723V11.1057C6.19954 11.1412 4.56246 12.8321 4.56246 14.907V38.4211C2.98318 39.8738 2 41.9007 2 44.1422C2 48.5514 5.7995 52.1386 10.4698 52.1386L42.1301 52.1292C43.2107 52.1287 44.227 51.645 44.9182 50.8022C45.5915 49.9817 45.8777 48.916 45.7128 47.865L52.0364 49.0224C52.1239 49.0384 52.2136 49.0466 52.3025 49.0466C52.6178 49.0466 52.92 48.948 53.1759 48.7617C53.5048 48.5224 53.7275 48.1519 53.7868 47.7455L53.9581 46.5749C53.9828 46.4072 53.9801 46.2384 53.95 46.0728C53.8412 45.4743 53.3937 44.9994 52.8099 44.8632L50.581 44.3424L54.7703 43.5585C55.1654 43.4846 55.5082 43.2587 55.7356 42.9224C55.9626 42.5869 56.0474 42.1815 55.9746 41.7807ZM46.9317 26.1824C47.4079 26.1824 47.8761 26.2592 48.3262 26.4105C48.7285 27.6581 48.5779 29.0038 47.948 30.1154H45.8171L46.4971 29.4212C46.8057 29.1063 46.8051 28.5961 46.4957 28.2818C46.1864 27.9675 45.6855 27.968 45.3771 28.2831L45.0174 28.6504C44.8487 28.0848 44.5543 27.5784 44.1672 27.163C44.9523 26.5281 45.9161 26.1824 46.9317 26.1824ZM42.4708 22.1459C43.8994 22.1459 45.0616 23.3331 45.0616 24.7924C45.0616 24.8195 45.0603 24.8463 45.0596 24.8731C44.2257 25.1493 43.4572 25.6107 42.8017 26.2373C42.6974 26.197 42.5916 26.1596 42.483 26.129C42.2516 24.8558 41.4092 23.8353 40.2964 23.3587C40.7582 22.6299 41.5596 22.1459 42.4708 22.1459ZM38.2895 17.658C38.8268 17.658 39.3548 17.7466 39.8636 17.9217C40.2725 19.16 40.1889 20.4902 39.6679 21.6424C39.2396 22.0398 38.8921 22.5264 38.6546 23.0734C38.5133 23.0818 38.3721 23.0977 38.2326 23.1224C37.6128 23.2323 37.0348 23.5062 36.5511 23.9034C36.3862 23.5962 36.1842 23.3127 35.9528 23.0575L37.7667 21.2057C38.0753 20.8908 38.0747 20.3806 37.7654 20.0664C37.4561 19.7521 36.9553 19.7527 36.6467 20.0677L34.6641 22.0917C34.2868 21.91 33.8791 21.7837 33.4506 21.7246C33.6356 20.7632 34.0937 19.8573 34.8022 19.1339C35.7345 18.1822 36.973 17.658 38.2895 17.658ZM32.2283 30.1154H31.5426C31.4271 29.8161 31.1416 29.604 30.8068 29.604C30.4719 29.604 30.1864 29.8162 30.0709 30.1154H29.2643C29.4516 29.8047 29.4138 29.3931 29.1493 29.1243C28.8401 28.81 28.3392 28.8105 28.0306 29.1255L27.2851 29.8865C27.2181 29.9548 27.1666 30.0327 27.1288 30.1154H25.5188C24.9158 29.173 24.5479 28.0606 24.5043 26.864H37.0536C37.01 28.0606 36.642 29.173 36.0391 30.1154H34.3637C34.3259 30.0327 34.2743 29.9547 34.2074 29.8864L33.4619 29.1254C33.1532 28.8105 32.6526 28.8097 32.3433 29.1241C32.0787 29.3929 32.0409 29.8046 32.2283 30.1154ZM30.3886 25.2526C30.6868 24.1272 31.6947 23.2967 32.8892 23.2967C34.0839 23.2967 35.0919 24.1273 35.39 25.2526H30.3886ZM32.0062 15.3461C32.7586 16.1743 33.2561 17.1577 33.5 18.1913C33.0962 18.6383 32.7607 19.1322 32.4961 19.6578C32.3759 19.5828 32.2351 19.5389 32.084 19.5389H31.0299C30.5931 19.5389 30.2389 19.8996 30.2389 20.3446C30.2389 20.7895 30.5931 21.1502 31.0299 21.1502H31.9546C31.9026 21.3727 31.8622 21.5978 31.8329 21.8247C31.5188 21.9087 31.2188 22.0284 30.9381 22.1807C30.4108 21.254 29.5378 20.5634 28.5033 20.2863C28.503 20.2841 28.5026 20.2818 28.5022 20.2796C28.4402 19.915 28.332 19.5691 28.1844 19.2476L32.0062 15.3461ZM17.707 22.616C17.6606 22.4839 17.6255 22.3483 17.6024 22.2123C17.3755 20.8802 18.2572 19.6074 19.5674 19.3751C19.7056 19.3506 19.846 19.3381 19.9846 19.3381C20.5057 19.3381 21.0037 19.5074 21.4246 19.8276C21.5988 19.9602 21.819 20.0138 22.0333 19.976C22.2476 19.9381 22.4371 19.8121 22.5574 19.6274C22.9287 19.0569 23.4969 18.6783 24.1571 18.5612C24.2956 18.5366 24.4363 18.5243 24.5752 18.5243C25.7471 18.5243 26.7432 19.3783 26.9434 20.5551C26.9664 20.6899 26.9782 20.8304 26.9784 20.9728C26.9791 21.3898 27.2923 21.7374 27.7002 21.7739C28.5846 21.8531 29.3374 22.4199 29.6864 23.2185C29.2192 23.7897 28.8953 24.487 28.7723 25.2526H24.2612C23.7003 25.2526 23.2191 25.6053 23.0184 26.1044C22.0259 25.4159 20.8563 25.045 19.6305 25.045C18.8626 25.045 18.1103 25.1923 17.3939 25.4827C17.2724 25.5321 17.1638 25.6051 17.0712 25.6994C16.9773 25.795 16.9053 25.907 16.8581 26.0299C16.676 26.4975 16.5546 26.9783 16.489 27.462C16.2055 27.1333 16.0058 26.7245 15.9277 26.2658C15.7417 25.1727 16.3035 24.0843 17.2935 23.619C17.6656 23.4441 17.845 23.0088 17.707 22.616ZM20.065 29.8951L20.2808 30.1154H18.381C17.9545 29.1076 17.8898 27.9604 18.236 26.8845C18.6868 26.7329 19.1547 26.6562 19.6305 26.6562C20.8224 26.6562 21.9436 27.1307 22.7875 27.9921C22.8997 28.1067 23.0042 28.2268 23.1024 28.3509C23.2365 28.969 23.4424 29.5595 23.7078 30.1153H22.5157L21.185 28.7568C20.8763 28.442 20.3754 28.4411 20.0664 28.7555C19.7571 29.07 19.7564 29.5801 20.065 29.8951ZM16.6964 30.1154H13.8765C14.0022 29.335 14.4631 28.6697 15.1029 28.2774C15.4816 28.7942 15.9759 29.2121 16.5455 29.4951C16.5857 29.7042 16.6352 29.9114 16.6964 30.1154ZM8.71348 4.47271H14.6188V7.80697H8.71348V4.47271ZM13.5255 9.41829V11.1041H9.80687V9.41829H13.5255ZM6.14459 18.1743H11.2812C11.7182 18.1743 12.0722 17.8136 12.0722 17.3687C12.0722 16.9237 11.7182 16.563 11.2812 16.563H6.14459V14.907C6.14459 13.6985 7.10688 12.7154 8.28971 12.7154H15.0426C16.2256 12.7154 17.1879 13.6985 17.1879 14.907V16.563H15.7109C15.2739 16.563 14.9199 16.9237 14.9199 17.3687C14.9199 17.8136 15.2739 18.1743 15.7109 18.1743H17.1879V18.8894C16.2816 19.7944 15.8109 21.1216 16.0433 22.4869C16.0437 22.4895 16.0443 22.4923 16.0447 22.4951C14.7757 23.3819 14.0995 24.9584 14.3688 26.5411C14.3845 26.6334 14.4042 26.7243 14.4258 26.8142C14.0306 27.0362 13.6757 27.3228 13.3715 27.6581H6.14459V18.1743ZM6.14448 29.2693H12.453C12.369 29.5409 12.3097 29.8235 12.2808 30.1154H12.1475C11.4195 30.1154 10.8271 30.7192 10.8271 31.4614C10.8271 32.7407 10.9438 33.9965 11.17 35.2252C10.9428 35.2066 10.7097 35.1966 10.4726 35.1966C9.51599 35.1966 8.60453 35.3512 7.90644 35.632C6.83857 36.0615 6.54337 36.6713 6.47892 37.0933C6.36576 37.1506 6.25459 37.2112 6.14448 37.2732V29.2693ZM16.1609 39.1666C16.4458 39.3988 16.6199 39.5961 16.7208 39.7384C16.7114 39.7385 16.7014 39.7386 16.6914 39.7386C16.2437 39.7386 15.4393 39.5548 14.5246 39.0391C14.184 38.8469 13.8703 38.6298 13.6171 38.4114C13.322 38.1567 12.8893 38.157 12.5944 38.4115C12.3413 38.6301 12.0276 38.8471 11.6874 39.0389C10.7724 39.5548 9.96803 39.7386 9.52042 39.7386C9.51019 39.7386 9.50038 39.7385 9.49078 39.7384C9.59161 39.5961 9.76574 39.3986 10.0507 39.1664C10.2997 38.9634 10.4047 38.6278 10.3168 38.3155C10.2289 38.0031 9.96539 37.7751 9.64846 37.7373C8.87653 37.6451 8.38843 37.445 8.15988 37.2993C8.44622 37.1177 9.17016 36.808 10.4729 36.808C11.5518 36.808 12.3404 37.039 12.7186 37.2554C12.9592 37.3929 13.2525 37.3929 13.4931 37.2555C13.8715 37.0391 14.6602 36.8081 15.7391 36.8081C17.042 36.8081 17.7658 37.1179 18.0521 37.2994C17.8236 37.4452 17.3354 37.6452 16.5633 37.7374C16.2463 37.7753 15.9828 38.0032 15.8949 38.3157C15.8068 38.6281 15.9117 38.9637 16.1609 39.1666ZM14.5786 48.9727L14.6058 49.122C14.6999 49.6395 14.8982 50.1144 15.1754 50.5273H10.4698C6.67193 50.5273 3.58203 47.663 3.58203 44.1422C3.58203 41.736 5.02568 39.6374 7.1515 38.5493C7.39565 38.7349 7.70004 38.8949 8.06116 39.0241C7.91793 39.2732 7.81816 39.5411 7.79464 39.8205C7.76342 40.192 7.87501 40.5447 8.10915 40.8139C8.41849 41.1697 8.8933 41.3501 9.52042 41.3501C10.3562 41.3501 11.4527 41.0131 12.4536 40.4487C12.684 40.3188 12.9019 40.1816 13.1059 40.0383C13.3098 40.1815 13.5277 40.3187 13.7582 40.4488C14.7591 41.0131 15.8557 41.35 16.6914 41.3501H16.6915C17.3184 41.3501 17.7932 41.1697 18.1025 40.814C18.3367 40.5448 18.4484 40.1921 18.4171 39.8205C18.3936 39.5411 18.2938 39.2732 18.1506 39.0241C18.5117 38.8948 18.8162 38.7348 19.0603 38.5493C20.7463 39.4123 22.0025 40.9109 22.4504 42.6944L16.8558 44.8591C15.2182 45.4929 14.2605 47.2228 14.5786 48.9727ZM43.7041 49.7691C43.3141 50.2448 42.74 50.5176 42.1293 50.5178L41.2991 50.5182L40.7804 47.6656C40.7008 47.2281 40.2883 46.9388 39.8585 47.0201C39.429 47.1011 39.1452 47.5214 39.2247 47.959L39.6903 50.5187L36.9686 50.5198L36.6179 48.5908C36.5382 48.1533 36.1256 47.8643 35.696 47.9453C35.2665 48.0263 34.9827 48.4466 35.0622 48.8842L35.3596 50.5204L29.0289 50.5229L28.5524 47.9031C28.4727 47.4656 28.0603 47.1766 27.6305 47.2577C27.2009 47.3387 26.9172 47.7592 26.9967 48.1967L27.42 50.5235L18.1763 50.5272C18.1761 50.5272 18.1759 50.5272 18.1757 50.5272C17.1872 50.5272 16.3401 49.8128 16.161 48.8282L16.1338 48.6789C15.955 47.6953 16.4948 46.7224 17.4174 46.3654L20.5263 45.1624L20.7579 46.4356C20.8284 46.8235 21.1609 47.0946 21.5346 47.0946C21.5825 47.0946 21.631 47.0901 21.6798 47.081C22.1092 46.9999 22.3929 46.5796 22.3133 46.142L22.0293 44.5809L26.644 42.7953C27.0524 42.6373 27.2578 42.1719 27.1026 41.756C26.9475 41.34 26.4901 41.1309 26.0823 41.2889L23.9349 42.1198C23.3324 39.9475 21.7848 38.1328 19.7325 37.0932C19.6681 36.6712 19.3728 36.0614 18.3051 35.6319C17.607 35.3511 16.6955 35.1965 15.7389 35.1965C15.0806 35.1965 14.4519 35.2705 13.8969 35.4054V34.9187C13.8969 34.4738 13.5429 34.1131 13.1059 34.1131C12.9212 34.1131 12.7519 34.178 12.6172 34.286C12.4924 33.4457 12.4226 32.5921 12.411 31.7265H38.1756C38.6126 31.7265 38.9667 31.3658 38.9667 30.9208C38.9667 30.4759 38.6126 30.1152 38.1756 30.1152H37.852C38.3557 29.0586 38.6402 27.8739 38.6402 26.6219C38.6402 25.9111 38.1062 25.3256 37.4258 25.2591C37.722 24.9745 38.0918 24.7827 38.504 24.7095C38.6247 24.6881 38.7473 24.6773 38.8684 24.6773C39.8896 24.6773 40.7574 25.4214 40.9317 26.4464C40.9519 26.5651 40.9622 26.6876 40.9623 26.8106C40.9628 27.2278 41.2761 27.5756 41.6841 27.6122C42.6295 27.6967 43.4029 28.4208 43.565 29.373C43.608 29.6262 43.6026 29.8761 43.5595 30.1152H42.7108C42.2738 30.1152 41.9198 30.4759 41.9198 30.9208C41.9198 31.3658 42.2738 31.7265 42.7108 31.7265H48.8587C48.8391 33.2044 48.6522 34.648 48.3037 36.0487L44.0168 38.6262C43.7546 37.6968 43.1452 36.9084 42.3056 36.4297C41.3638 35.8929 40.2447 35.8091 39.2354 36.1995L30.4065 39.6157C29.998 39.7738 29.7928 40.2391 29.948 40.655C30.1031 41.0711 30.5604 41.2799 30.9682 41.1221L32.1314 40.6721L32.4925 42.658C32.563 43.0459 32.8955 43.3172 33.2694 43.3172C33.3171 43.3172 33.3656 43.3127 33.4144 43.3035C33.8438 43.2225 34.1277 42.8022 34.0481 42.3647L33.6346 40.0905L39.797 37.7061C40.368 37.4853 41.0006 37.5326 41.5329 37.8361C42.0643 38.1389 42.4323 38.661 42.5429 39.2681L44.1431 48.0676C44.2535 48.6744 44.0935 49.2945 43.7041 49.7691ZM46.5264 43.4628C46.1574 43.5319 45.8868 43.8554 45.8785 44.2375C45.8703 44.6196 46.1268 44.955 46.4924 45.0404L52.3818 46.4163L52.2347 47.4216L45.4073 46.172L44.34 40.3031L50.2868 36.7277L50.7822 37.6211L45.7663 41.0362C45.4544 41.2485 45.3319 41.6548 45.473 42.0089C45.614 42.3629 45.98 42.5675 46.3489 42.4984L54.228 41.0243L54.4035 41.9889L46.5264 43.4628Z" fill="#263238"/>
</g>
<defs>
<filter id="filter0_d" x="0" y="0" width="58" height="60" filterUnits="userSpaceOnUse" color-interpolation-filters="sRGB">
<feFlood flood-opacity="0" result="BackgroundImageFix"/>
<feColorMatrix in="SourceAlpha" type="matrix" values="0 0 0 0 0 0 0 0 0 0 0 0 0 0 0 0 0 0 127 0"/>
<feOffset dy="3"/>
<feGaussianBlur stdDeviation="1"/>
<feColorMatrix type="matrix" values="0 0 0 0 0 0 0 0 0 0 0 0 0 0 0 0 0 0 0.12 0"/>
<feBlend mode="normal" in2="BackgroundImageFix" result="effect1_dropShadow"/>
<feBlend mode="normal" in="SourceGraphic" in2="effect1_dropShadow" result="shape"/>
</filter>
</defs>
</svg>
