<svg width="56" height="55" viewBox="0 0 56 55" fill="none" xmlns="http://www.w3.org/2000/svg">
<g clip-path="url(#clip0)">
<path d="M27.6096 31.5703C27.0643 31.3155 26.4119 31.5427 26.1523 32.0782L25.9709 32.4525C25.7114 32.988 25.9429 33.6287 26.488 33.8838C26.6399 33.9548 26.7998 33.9884 26.9574 33.9884C27.366 33.9884 27.758 33.7625 27.9454 33.3759L28.1267 33.0016C28.3864 32.466 28.1547 31.8252 27.6096 31.5703Z" fill="#1A3B42"/>
<path d="M15.3552 25.3465C14.9282 24.9271 14.2359 24.9271 13.8089 25.3465C12.9024 26.2369 11.4273 26.2369 10.5206 25.3465C10.0936 24.9271 9.4013 24.9271 8.9743 25.3465C8.5473 25.7659 8.5473 26.4459 8.9743 26.8652C9.8539 27.729 11.0093 28.1611 12.1648 28.1611C13.3202 28.1611 14.4755 27.7291 15.3551 26.8652C15.7821 26.446 15.7821 25.766 15.3552 25.3465Z" fill="#1A3B42"/>
<g filter="url(#filter0_d)">
<path d="M52.2134 2.85312C48.3611 -0.930276 42.1013 -0.941233 38.2337 2.81789C37.0264 2.22922 35.7446 1.72423 34.3932 1.3085C29.9597 -0.055432 26.3326 -0.00483618 26.018 0.0019314C20.0865 0.00579858 14.9126 2.45018 12.5126 6.38322C12.1959 6.90228 11.9319 7.44025 11.7202 7.9938C10.5898 9.05094 5.48855 14.2288 5.48855 21.5706C5.48855 26.4607 3.09368 29.0138 1.66622 30.1005C1.1328 30.5065 0.843941 31.1442 0.893707 31.8061C0.943472 32.4684 1.32464 33.0577 1.91341 33.3826C2.45132 33.6796 3.05627 33.9645 3.64121 34.2402C4.15844 34.4839 4.89344 34.8303 5.25186 35.0556V36.9684C5.25186 37.2301 5.201 37.4856 5.10071 37.7283L4.82957 38.3838C4.45824 39.2812 4.59496 40.3087 5.18427 41.0819V41.3175C5.18427 42.0143 5.49664 42.6593 6.01694 43.0968V44.3577C6.01694 47.0599 8.25519 49.2582 11.0065 49.2582H14.2351C14.8389 49.2582 15.3285 48.7774 15.3285 48.1843C15.3285 47.5912 14.8389 47.1104 14.2351 47.1104H11.0065C9.46116 47.1104 8.20368 45.8755 8.20368 44.3576V42.5048C8.20368 42.0745 7.94216 41.6859 7.53922 41.5171L7.49197 41.4973C7.41847 41.4665 7.371 41.3959 7.371 41.3175V40.7113C7.371 40.4704 7.28853 40.2365 7.13694 40.0472L6.944 39.8064C6.80466 39.6326 6.77086 39.3971 6.85563 39.1921L7.12677 38.5365C7.33371 38.036 7.43871 37.5085 7.43871 36.9684V34.6821C7.43871 33.6473 6.36541 33.1416 4.58719 32.3037C4.12027 32.0837 3.64011 31.8574 3.21541 31.6342C4.97394 30.2247 7.6755 27.1498 7.6755 21.5705C7.6755 17.5334 9.50524 14.1694 11.0926 12.01C11.1793 13.8812 11.7556 15.838 12.8221 17.7972C15.6284 22.9521 20.5153 25.1128 24.4419 26.8487C28.178 28.5004 30.2925 29.5402 30.3095 31.7015C30.3218 33.2886 29.9502 34.4564 29.2048 35.1722C28.3442 35.9987 27.2019 35.9775 27.195 35.9774C26.8281 35.9522 26.4841 36.1095 26.2606 36.3961C26.0371 36.6827 25.9862 37.0612 26.1066 37.4023C26.1387 37.4931 26.9133 39.6502 28.6866 41.7521C30.9029 44.3791 33.7006 45.7653 36.8201 45.7963L39.7581 54.2564C39.9131 54.703 40.3379 54.984 40.7928 54.984C40.9099 54.984 41.029 54.9654 41.1459 54.9261C41.7175 54.7347 42.0228 54.1244 41.8277 53.5631L38.9343 45.2314C44.3892 42.3604 48.2244 37.9068 50.0527 32.2979C51.5102 27.8269 51.5798 22.8101 50.3484 18.0586C51.0231 17.6558 51.6484 17.1748 52.2133 16.62C56.078 12.8246 56.078 6.64877 52.2134 2.85312ZM47.9702 31.6434C46.2544 36.9076 42.5705 41.0522 37.3097 43.6418C34.6496 43.7591 32.3294 42.6795 30.4113 40.4299C29.6379 39.5231 29.0781 38.5896 28.7116 37.883C29.3355 37.6913 30.052 37.3498 30.6971 36.743C31.9082 35.6037 32.5136 33.902 32.4963 31.6853C32.4679 28.0417 29.0054 26.5111 25.3397 24.8904C21.5269 23.2047 17.2053 21.2942 14.7506 16.7848C13.2257 13.9833 12.8668 11.3196 13.6795 8.98412C13.6829 8.9752 13.6861 8.96618 13.6893 8.95726C13.8674 8.45131 14.0999 7.96039 14.3886 7.4872C16.3975 4.19482 20.8592 2.14951 26.0325 2.14951C26.043 2.14951 26.0533 2.1494 26.064 2.14908C26.098 2.14801 29.5442 2.06712 33.7397 3.35779C39.3229 5.07557 43.4358 8.27621 45.9638 12.8709C49.1586 18.6782 49.9088 25.6959 47.9702 31.6434ZM49.6949 15.9121C49.2071 14.5159 48.605 13.1541 47.8874 11.8499C46.0925 8.58773 43.4993 5.90928 40.247 3.92015C43.2789 1.42377 47.8178 1.57308 50.6672 4.37175C53.6792 7.32993 53.6792 12.1433 50.6672 15.1015C50.364 15.3994 50.0391 15.67 49.6949 15.9121Z" fill="#1A3B42"/>
</g>
<path d="M28.9375 50.3065L25.5118 44.4789L25.396 40.4997C25.2991 37.1672 22.6746 34.4504 19.2913 34.18C16.8035 33.9809 14.4148 35.3359 13.3464 37.5513L13.2923 37.6632C11.8759 40.5996 12.8978 44.1518 15.6693 45.9262L19.0795 48.1094L22.805 54.4469C23.0075 54.7914 23.375 54.984 23.7528 54.9839C23.9382 54.9839 24.1264 54.9375 24.2985 54.8398C24.8214 54.5434 25.0007 53.8866 24.6987 53.3729L21.3891 47.7429L22.7078 46.9951L24.0264 46.2474L27.0436 51.38C27.3454 51.8936 28.0141 52.0695 28.5372 51.7731C29.0604 51.4769 29.2395 50.8201 28.9375 50.3065ZM19.9305 46.0905L16.8636 44.1271C15.004 42.9365 14.3184 40.5529 15.2687 38.5826L15.3228 38.4707C15.96 37.1497 17.3335 36.3086 18.8063 36.3086C18.9085 36.3086 19.0112 36.3127 19.1141 36.321C21.3842 36.5023 23.1452 38.3253 23.2101 40.5612L23.3152 44.1712L19.9305 46.0905Z" fill="#1A3B42"/>
<path d="M30.5762 53.1668C30.3729 52.967 30.0907 52.8522 29.8031 52.8522C29.5145 52.8522 29.2335 52.9671 29.0301 53.1668C28.8266 53.3665 28.7097 53.6437 28.7097 53.9261C28.7097 54.2085 28.8267 54.4856 29.0301 54.6854C29.2334 54.8851 29.5145 55 29.8031 55C30.0907 55 30.3728 54.8851 30.5762 54.6854C30.7795 54.4857 30.8966 54.2085 30.8966 53.9261C30.8966 53.6437 30.7795 53.3666 30.5762 53.1668Z" fill="#1A3B42"/>
<path d="M21.6158 6.29524C21.3783 5.75007 20.7359 5.49677 20.1804 5.72999C18.2521 6.53963 16.8612 7.90442 16.2642 9.57311C15.6659 11.2451 15.8905 13.1227 16.9138 15.0024C17.1108 15.3643 17.4885 15.5702 17.8791 15.5702C18.0531 15.5702 18.2295 15.5292 18.3936 15.4431C18.9261 15.1635 19.1271 14.5128 18.8423 13.9897C18.1054 12.6358 17.9321 11.3894 18.3273 10.2849C18.7188 9.19101 19.6821 8.2746 21.0401 7.70462C21.5953 7.47173 21.853 6.84073 21.6158 6.29524Z" fill="#1A3B42"/>
<path d="M24.2828 4.94173L24.2215 4.94183C23.6178 4.94527 23.1309 5.42889 23.1345 6.02207C23.138 6.613 23.6269 7.08963 24.2279 7.08963C24.23 7.08963 24.2322 7.08963 24.2344 7.08963L24.2828 7.08952C24.8866 7.08952 25.3762 6.6087 25.3762 6.01562C25.3762 5.42255 24.8866 4.94173 24.2828 4.94173Z" fill="#1A3B42"/>
</g>
<defs>
<filter id="filter0_d" x="-1.11182" y="3.8147e-05" width="58.2237" height="59.984" filterUnits="userSpaceOnUse" color-interpolation-filters="sRGB">
<feFlood flood-opacity="0" result="BackgroundImageFix"/>
<feColorMatrix in="SourceAlpha" type="matrix" values="0 0 0 0 0 0 0 0 0 0 0 0 0 0 0 0 0 0 127 0"/>
<feOffset dy="3"/>
<feGaussianBlur stdDeviation="1"/>
<feColorMatrix type="matrix" values="0 0 0 0 0 0 0 0 0 0 0 0 0 0 0 0 0 0 0.12 0"/>
<feBlend mode="normal" in2="BackgroundImageFix" result="effect1_dropShadow"/>
<feBlend mode="normal" in="SourceGraphic" in2="effect1_dropShadow" result="shape"/>
</filter>
<clipPath id="clip0">
<rect width="56" height="55" fill="white"/>
</clipPath>
</defs>
</svg>
