<svg width="57" height="55" viewBox="0 0 57 55" fill="none" xmlns="http://www.w3.org/2000/svg">
<g clip-path="url(#clip0)">
<g filter="url(#filter0_d)">
<path d="M12.8232 0.931103C6.7883 1.5361 1.82129 6.19048 1.0126 11.999C0.830023 13.3181 0.853179 14.6399 1.08385 15.9281C2.13746 21.8174 2.67184 27.6877 2.67184 33.3759V42.1098C2.67184 48.7441 8.26496 54.141 15.1406 54.141C22.0162 54.141 27.6093 48.7441 27.6093 42.1098V13.7504C27.6093 10.1058 25.9991 6.61501 23.1918 4.17267C20.3472 1.69767 16.6662 0.551259 12.8232 0.931103ZM25.8281 42.1098C25.8281 47.7963 21.0339 52.4223 15.1406 52.4223C9.24732 52.4223 4.45309 47.7963 4.45309 42.1098V33.3759C4.45309 27.5898 3.9107 21.6206 2.83927 15.6359C2.63977 14.5195 2.61929 13.3731 2.77871 12.2267C3.47874 7.19681 7.78046 3.16548 13.0075 2.64126C16.342 2.30267 19.5331 3.3047 21.9993 5.4497C24.4325 7.56634 25.8281 10.5913 25.8281 13.7504V42.1098Z" fill="#263238"/>
<path d="M55.9874 11.9986C55.1787 6.19007 50.2117 1.5357 44.1768 0.930698C40.3382 0.54312 36.6537 1.69726 33.8081 4.17226C31.0009 6.6146 29.3906 10.1054 29.3906 13.75V42.1094C29.3906 48.7437 34.9837 54.1406 41.8594 54.1406C48.735 54.1406 54.3281 48.7437 54.3281 42.1094V33.3755C54.3281 27.6873 54.8625 21.8169 55.9161 15.9277C56.1468 14.6394 56.1699 13.3177 55.9874 11.9986ZM54.1607 15.6355C53.0893 21.6202 52.5469 27.5894 52.5469 33.3755V42.1094C52.5469 47.7959 47.7526 52.4219 41.8594 52.4219C35.9661 52.4219 31.1719 47.7959 31.1719 42.1094V13.75C31.1719 10.5909 32.5675 7.56593 35.0007 5.44929C37.1551 3.57585 39.8644 2.57726 42.7357 2.57726C43.1517 2.57726 43.5712 2.59789 43.9924 2.64085C49.2195 3.16421 53.5212 7.1964 54.2221 12.2263C54.3816 13.3736 54.3602 14.52 54.1607 15.6355Z" fill="#263238"/>
<path d="M20.4069 47.9402L21.5789 49.2344C22.0706 48.8211 22.5203 48.3579 22.9158 47.8594L21.5032 46.8136C21.179 47.2209 20.8103 47.6008 20.4069 47.9402Z" fill="#263238"/>
<path d="M22.3466 45.5013L23.947 46.255C24.2338 45.6895 24.4618 45.0931 24.6257 44.4847L22.9014 44.0533C22.7669 44.5508 22.5808 45.0381 22.3466 45.5013Z" fill="#263238"/>
<path d="M23.1562 42.1094C23.1562 42.2494 23.1527 42.3895 23.1447 42.527L24.9223 42.6207C24.9321 42.4514 24.9375 42.2812 24.9375 42.1094V40.8555H23.1562V42.1094Z" fill="#263238"/>
<path d="M10.5922 50.4831C11.1702 50.777 11.7811 51.0142 12.4081 51.1895L12.9042 49.5378C12.393 49.3951 11.8934 49.2009 11.4222 48.962L10.5922 50.4831Z" fill="#263238"/>
<path d="M23.1562 37.418H24.9375V39.1368H23.1562V37.418Z" fill="#263238"/>
<path d="M14.478 49.8171L14.3319 51.5307C14.5991 51.5513 14.8681 51.5625 15.1406 51.5625C15.5218 51.5625 15.9065 51.541 16.2859 51.498L16.0793 49.7913C15.5441 49.8515 15.0017 49.8601 14.478 49.8171Z" fill="#263238"/>
<path d="M17.6405 49.4605L18.1971 51.0933C18.8152 50.8965 19.4164 50.6395 19.9855 50.3267L19.1038 48.8331C18.638 49.0892 18.1455 49.2998 17.6405 49.4605Z" fill="#263238"/>
<path d="M23.1562 30.543H24.9375V32.2618H23.1562V30.543Z" fill="#263238"/>
<path d="M23.1562 20.2305H24.9375V21.9493H23.1562V20.2305Z" fill="#263238"/>
<path d="M23.1562 16.793H24.9375V18.5118H23.1562V16.793Z" fill="#263238"/>
<path d="M22.9363 11.8448L24.6739 11.4658C24.5323 10.8599 24.3292 10.2601 24.0736 9.6843L22.4366 10.3623C22.6504 10.841 22.8178 11.3403 22.9363 11.8448Z" fill="#263238"/>
<path d="M23.1562 23.668H24.9375V25.3868H23.1562V23.668Z" fill="#263238"/>
<path d="M8.9498 47.0224L7.57556 48.1147C7.98881 48.5985 8.45461 49.0462 8.96048 49.4441L10.0862 48.1112C9.67031 47.7855 9.28912 47.4194 8.9498 47.0224Z" fill="#263238"/>
<path d="M23.1562 33.9805H24.9375V35.6993H23.1562V33.9805Z" fill="#263238"/>
<path d="M23.1562 27.1055H24.9375V28.8243H23.1562V27.1055Z" fill="#263238"/>
<path d="M13.2169 5.21211L13.2961 5.20351L13.1189 3.49335L13.0031 3.50625C12.3601 3.57671 11.7206 3.70562 11.0999 3.89125L11.6271 5.53265C12.141 5.37968 12.6718 5.27226 13.2169 5.21211Z" fill="#263238"/>
<path d="M5.80506 17.0139L4.04785 17.2958C4.14404 17.8544 4.2331 18.4147 4.31593 18.9741L6.07937 18.7326C5.99476 18.1594 5.90302 17.5862 5.80506 17.0139Z" fill="#263238"/>
<path d="M7.58991 8.04289L6.2611 6.8982C5.83182 7.36312 5.44261 7.86843 5.10596 8.40039L6.62625 9.29671C6.90769 8.85242 7.23188 8.43132 7.58991 8.04289Z" fill="#263238"/>
<path d="M5.34375 13.7526H3.5625C3.5625 14.3816 3.62128 15.0098 3.73884 15.6191L5.4907 15.3055C5.39363 14.7993 5.34375 14.2768 5.34375 13.7526Z" fill="#263238"/>
<path d="M10.1325 6.1282L9.30421 4.60625C8.7351 4.89414 8.18648 5.23617 7.67615 5.62031L8.77162 6.97468C9.19912 6.65328 9.6569 6.36882 10.1325 6.1282Z" fill="#263238"/>
<path d="M5.91555 10.6941L4.25097 10.083C4.01941 10.6709 3.84574 11.2802 3.73352 11.892L5.48716 12.1911C5.57979 11.6849 5.72407 11.1813 5.91555 10.6941Z" fill="#263238"/>
<path d="M20.4639 5.35733C19.9376 4.99381 19.3747 4.67499 18.7904 4.40944L18.0316 5.96577C18.5188 6.18663 18.9873 6.45131 19.4263 6.75553L20.4639 5.35733Z" fill="#263238"/>
<path d="M16.9655 3.77438C16.3412 3.61539 15.6972 3.51227 15.0515 3.46672L14.9215 5.18031C15.4586 5.21899 15.9938 5.30492 16.5139 5.43641L16.9655 3.77438Z" fill="#263238"/>
<path d="M7.45456 44.3111L5.74634 44.7992C5.93248 45.4025 6.18185 45.9912 6.49001 46.5472L8.06107 45.7385C7.81081 45.2848 7.60596 44.8044 7.45456 44.3111Z" fill="#263238"/>
<path d="M20.6517 7.77562C21.0267 8.1503 21.3687 8.55851 21.667 8.99077L23.149 8.03773C22.7919 7.51952 22.3822 7.02968 21.9325 6.58109L20.6517 7.77562Z" fill="#263238"/>
<path d="M5.34381 35.9966H7.12506V35.7277C7.12595 35.243 7.12417 34.7574 7.12061 34.2727L5.33936 34.2848C5.34292 34.7634 5.3447 35.2438 5.34381 35.7251V35.9966Z" fill="#263238"/>
<path d="M5.34375 37.7154H7.125V39.4341H5.34375V37.7154Z" fill="#263238"/>
<path d="M7.125 42.1094V41.1529H5.34375V42.1094C5.34375 42.3904 5.35622 42.668 5.38116 42.9447L7.15528 42.7951C7.13569 42.5691 7.125 42.3405 7.125 42.1094Z" fill="#263238"/>
<path d="M7.06348 30.818L5.28223 30.8636C5.29826 31.4325 5.30984 32.0022 5.31874 32.5712L7.09999 32.5462C7.09109 31.9705 7.07862 31.3938 7.06348 30.818Z" fill="#263238"/>
<path d="M6.31627 20.454L4.54749 20.6602C4.61874 21.2231 4.68375 21.7877 4.74342 22.3523L6.51577 22.1796C6.45431 21.603 6.38752 21.0289 6.31627 20.454Z" fill="#263238"/>
<path d="M6.6805 23.9035L4.90637 24.0479C4.95536 24.6134 4.999 25.1797 5.03729 25.7469L6.81498 25.6326C6.7749 25.0559 6.73126 24.4793 6.6805 23.9035Z" fill="#263238"/>
<path d="M6.92278 27.3608L5.14331 27.451C5.17448 28.0182 5.2012 28.5863 5.22347 29.1543L7.00294 29.0907C6.98156 28.5149 6.95484 27.9383 6.92278 27.3608Z" fill="#263238"/>
<path d="M23.1562 13.75V15.0743H24.9375V13.75C24.9375 13.6056 24.9348 13.4621 24.9277 13.3169L23.1482 13.3942C23.1535 13.5128 23.1562 13.6305 23.1562 13.75Z" fill="#263238"/>
<path d="M15.1406 44.6875C15.1406 46.1089 16.3394 47.2656 17.8125 47.2656C19.2856 47.2656 20.4844 46.1089 20.4844 44.6875C20.4844 43.2661 19.2856 42.1094 17.8125 42.1094C16.3394 42.1094 15.1406 43.2661 15.1406 44.6875ZM18.7031 44.6875C18.7031 45.1619 18.3041 45.5469 17.8125 45.5469C17.3209 45.5469 16.9219 45.1619 16.9219 44.6875C16.9219 44.2131 17.3209 43.8281 17.8125 43.8281C18.3041 43.8281 18.7031 44.2131 18.7031 44.6875Z" fill="#263238"/>
<path d="M11.5781 32.6563C10.105 32.6563 8.90625 33.813 8.90625 35.2344C8.90625 36.6558 10.105 37.8125 11.5781 37.8125C13.0512 37.8125 14.25 36.6558 14.25 35.2344C14.25 33.813 13.0512 32.6563 11.5781 32.6563ZM11.5781 36.0938C11.0865 36.0938 10.6875 35.7088 10.6875 35.2344C10.6875 34.76 11.0865 34.375 11.5781 34.375C12.0698 34.375 12.4688 34.76 12.4688 35.2344C12.4688 35.7088 12.0698 36.0938 11.5781 36.0938Z" fill="#263238"/>
<path d="M21.375 28.3594C21.375 26.938 20.1762 25.7813 18.7031 25.7813C17.23 25.7813 16.0312 26.938 16.0312 28.3594C16.0312 29.7808 17.23 30.9375 18.7031 30.9375C20.1762 30.9375 21.375 29.7808 21.375 28.3594ZM18.7031 29.2188C18.2115 29.2188 17.8125 28.8338 17.8125 28.3594C17.8125 27.885 18.2115 27.5 18.7031 27.5C19.1948 27.5 19.5938 27.885 19.5938 28.3594C19.5938 28.8338 19.1948 29.2188 18.7031 29.2188Z" fill="#263238"/>
<path d="M16.9219 14.6094C18.8866 14.6094 20.4844 13.0677 20.4844 11.1719C20.4844 9.27609 18.8866 7.73438 16.9219 7.73438C14.9572 7.73438 13.3594 9.27609 13.3594 11.1719C13.3594 13.0677 14.9572 14.6094 16.9219 14.6094ZM16.9219 9.45313C17.9042 9.45313 18.7031 10.224 18.7031 11.1719C18.7031 12.1198 17.9042 12.8906 16.9219 12.8906C15.9395 12.8906 15.1406 12.1198 15.1406 11.1719C15.1406 10.224 15.9395 9.45313 16.9219 9.45313Z" fill="#263238"/>
<path d="M50.9205 18.7326L52.684 18.9741C52.7668 18.4147 52.855 17.8544 52.9521 17.2958L51.1948 17.0139C51.0969 17.5862 51.0051 18.1594 50.9205 18.7326Z" fill="#263238"/>
<path d="M32.0625 23.668H33.8438V25.3868H32.0625V23.668Z" fill="#263238"/>
<path d="M34.0984 44.0541L32.3741 44.4855C32.538 45.094 32.7651 45.6895 33.0528 46.2559L34.6532 45.5022C34.419 45.0381 34.2329 44.5509 34.0984 44.0541Z" fill="#263238"/>
<path d="M35.4958 46.8144L34.0833 47.8603C34.4787 48.3587 34.9285 48.8211 35.4201 49.2353L36.5921 47.9411C36.1896 47.6008 35.8209 47.2209 35.4958 46.8144Z" fill="#263238"/>
<path d="M32.0625 37.418H33.8438V39.1368H32.0625V37.418Z" fill="#263238"/>
<path d="M32.0625 27.1055H33.8438V28.8243H32.0625V27.1055Z" fill="#263238"/>
<path d="M32.0625 30.543H33.8438V32.2618H32.0625V30.543Z" fill="#263238"/>
<path d="M32.0625 33.9805H33.8438V35.6993H32.0625V33.9805Z" fill="#263238"/>
<path d="M37.0153 50.3267C37.5844 50.6387 38.1847 50.8965 38.8036 51.0933L39.3603 49.4605C38.8553 49.2998 38.3628 49.0892 37.897 48.834L37.0153 50.3267Z" fill="#263238"/>
<path d="M49.875 37.7154H51.6562V39.4341H49.875V37.7154Z" fill="#263238"/>
<path d="M49.875 42.1094C49.875 42.3405 49.8643 42.5691 49.8447 42.7951L51.6189 42.9447C51.6438 42.668 51.6563 42.3904 51.6563 42.1094V41.1529H49.875V42.1094Z" fill="#263238"/>
<path d="M48.939 45.7394L50.51 46.548C50.8182 45.992 51.0676 45.4034 51.2537 44.8001L49.5455 44.312C49.3941 44.8044 49.1892 45.2848 48.939 45.7394Z" fill="#263238"/>
<path d="M40.9206 49.7905L40.714 51.4972C41.0934 51.541 41.4781 51.5625 41.8593 51.5625C42.1319 51.5625 42.4008 51.5513 42.668 51.5307L42.522 49.8171C41.9992 49.8592 41.4568 49.8515 40.9206 49.7905Z" fill="#263238"/>
<path d="M49.8999 32.5462L51.6812 32.5712C51.6901 32.0022 51.7016 31.4325 51.7177 30.8636L49.9364 30.818C49.9213 31.3938 49.9088 31.9705 49.8999 32.5462Z" fill="#263238"/>
<path d="M46.9146 48.1112L48.0403 49.4441C48.5453 49.0462 49.012 48.5994 49.4252 48.1147L48.051 47.0224C47.7108 47.4194 47.3296 47.7855 46.9146 48.1112Z" fill="#263238"/>
<path d="M44.0967 49.5387L44.5928 51.1904C45.2198 51.0151 45.8307 50.7779 46.4087 50.484L45.5787 48.9629C45.1066 49.2018 44.6079 49.396 44.0967 49.5387Z" fill="#263238"/>
<path d="M33.8437 42.1094V40.8555H32.0625V42.1094C32.0625 42.2812 32.0678 42.4514 32.0776 42.6215L33.8553 42.5279C33.8473 42.3895 33.8437 42.2494 33.8437 42.1094Z" fill="#263238"/>
<path d="M38.9684 5.96577L38.2096 4.40944C37.6254 4.67499 37.0625 4.99381 36.5361 5.35733L37.5728 6.75553C38.0128 6.45217 38.4813 6.18663 38.9684 5.96577Z" fill="#263238"/>
<path d="M32.0625 20.2305H33.8438V21.9493H32.0625V20.2305Z" fill="#263238"/>
<path d="M50.4851 22.1796L52.2574 22.3523C52.3162 21.7877 52.3821 21.224 52.4534 20.6602L50.6846 20.454C50.6125 21.0289 50.5457 21.603 50.4851 22.1796Z" fill="#263238"/>
<path d="M49.875 35.7251V35.9958H51.6562V35.7234C51.6553 35.243 51.6571 34.7634 51.6607 34.2831L49.8794 34.271C49.8759 34.7566 49.8741 35.2421 49.875 35.7251Z" fill="#263238"/>
<path d="M45.9001 3.89125C45.2802 3.70562 44.6399 3.57671 44.0093 3.5071L43.8811 3.49335L43.7947 5.21296C44.3282 5.2714 44.8581 5.37882 45.372 5.53265L45.9001 3.89125Z" fill="#263238"/>
<path d="M49.3237 5.62031C48.8133 5.23617 48.2656 4.89413 47.6956 4.60538L46.8673 6.12734C47.3429 6.36796 47.8007 6.65242 48.2273 6.97382L49.3237 5.62031Z" fill="#263238"/>
<path d="M50.1849 25.6326L51.9626 25.7469C52.0009 25.1805 52.0455 24.6142 52.0935 24.0479L50.3194 23.9035C50.2687 24.4793 50.225 25.0559 50.1849 25.6326Z" fill="#263238"/>
<path d="M51.894 8.40039C51.5573 7.86843 51.169 7.36312 50.7388 6.8982L49.41 8.04289C49.7681 8.43047 50.0931 8.85156 50.3737 9.29671L51.894 8.40039Z" fill="#263238"/>
<path d="M42.0794 5.17945L41.9494 3.46586C41.3028 3.51226 40.6597 3.61539 40.0354 3.77351L40.4878 5.43555C41.0071 5.30406 41.5432 5.21812 42.0794 5.17945Z" fill="#263238"/>
<path d="M33.8438 13.75C33.8438 13.6305 33.8464 13.5128 33.8518 13.3942L32.0723 13.3169C32.0652 13.4621 32.0625 13.6056 32.0625 13.75V15.0743H33.8438V13.75Z" fill="#263238"/>
<path d="M34.5633 10.3623L32.9263 9.6843C32.6707 10.2601 32.4677 10.8599 32.326 11.4658L34.0637 11.8448C34.1821 11.3403 34.3495 10.841 34.5633 10.3623Z" fill="#263238"/>
<path d="M32.0625 16.793H33.8438V18.5118H32.0625V16.793Z" fill="#263238"/>
<path d="M51.5093 15.3055L53.2611 15.6191C53.3787 15.0098 53.4375 14.3816 53.4375 13.7526H51.6562C51.6562 14.2768 51.6064 14.7993 51.5093 15.3055Z" fill="#263238"/>
<path d="M51.5137 12.192L53.2674 11.8929C53.1551 11.2802 52.9815 10.6709 52.7499 10.0839L51.0853 10.6949C51.2759 11.1813 51.4202 11.6849 51.5137 12.192Z" fill="#263238"/>
<path d="M36.3481 7.77562L35.0674 6.58023C34.6177 7.02882 34.208 7.51953 33.8508 8.03687L35.3328 8.98992C35.6312 8.55851 35.9732 8.14945 36.3481 7.77562Z" fill="#263238"/>
<path d="M49.9971 29.0916L51.7765 29.1552C51.7979 28.5871 51.8255 28.0191 51.8567 27.4519L50.0772 27.3616C50.0452 27.9383 50.0184 28.5149 49.9971 29.0916Z" fill="#263238"/>
<path d="M36.5156 44.6875C36.5156 46.1089 37.7144 47.2656 39.1875 47.2656C40.6606 47.2656 41.8594 46.1089 41.8594 44.6875C41.8594 43.2661 40.6606 42.1094 39.1875 42.1094C37.7144 42.1094 36.5156 43.2661 36.5156 44.6875ZM40.0781 44.6875C40.0781 45.1619 39.6791 45.5469 39.1875 45.5469C38.6959 45.5469 38.2969 45.1619 38.2969 44.6875C38.2969 44.2131 38.6959 43.8281 39.1875 43.8281C39.6791 43.8281 40.0781 44.2131 40.0781 44.6875Z" fill="#263238"/>
<path d="M48.0938 35.2344C48.0938 33.813 46.895 32.6563 45.4219 32.6563C43.9488 32.6563 42.75 33.813 42.75 35.2344C42.75 36.6558 43.9488 37.8125 45.4219 37.8125C46.895 37.8125 48.0938 36.6558 48.0938 35.2344ZM44.5312 35.2344C44.5312 34.76 44.9302 34.375 45.4219 34.375C45.9135 34.375 46.3125 34.76 46.3125 35.2344C46.3125 35.7088 45.9135 36.0938 45.4219 36.0938C44.9302 36.0938 44.5312 35.7088 44.5312 35.2344Z" fill="#263238"/>
<path d="M38.2969 30.9375C39.77 30.9375 40.9688 29.7808 40.9688 28.3594C40.9688 26.938 39.77 25.7813 38.2969 25.7813C36.8238 25.7813 35.625 26.938 35.625 28.3594C35.625 29.7808 36.8238 30.9375 38.2969 30.9375ZM38.2969 27.5C38.7885 27.5 39.1875 27.885 39.1875 28.3594C39.1875 28.8338 38.7885 29.2188 38.2969 29.2188C37.8053 29.2188 37.4063 28.8338 37.4063 28.3594C37.4063 27.885 37.8053 27.5 38.2969 27.5Z" fill="#263238"/>
<path d="M40.0781 14.6094C42.0428 14.6094 43.6406 13.0677 43.6406 11.1719C43.6406 9.27609 42.0428 7.73438 40.0781 7.73438C38.1134 7.73438 36.5156 9.27609 36.5156 11.1719C36.5156 13.0677 38.1134 14.6094 40.0781 14.6094ZM40.0781 9.45313C41.0605 9.45313 41.8594 10.224 41.8594 11.1719C41.8594 12.1198 41.0605 12.8906 40.0781 12.8906C39.0958 12.8906 38.2969 12.1198 38.2969 11.1719C38.2969 10.224 39.0958 9.45313 40.0781 9.45313Z" fill="#263238"/>
</g>
</g>
<defs>
<filter id="filter0_d" x="-1.10876" y="0.857178" width="59.2175" height="58.2838" filterUnits="userSpaceOnUse" color-interpolation-filters="sRGB">
<feFlood flood-opacity="0" result="BackgroundImageFix"/>
<feColorMatrix in="SourceAlpha" type="matrix" values="0 0 0 0 0 0 0 0 0 0 0 0 0 0 0 0 0 0 127 0"/>
<feOffset dy="3"/>
<feGaussianBlur stdDeviation="1"/>
<feColorMatrix type="matrix" values="0 0 0 0 0 0 0 0 0 0 0 0 0 0 0 0 0 0 0.12 0"/>
<feBlend mode="normal" in2="BackgroundImageFix" result="effect1_dropShadow"/>
<feBlend mode="normal" in="SourceGraphic" in2="effect1_dropShadow" result="shape"/>
</filter>
<clipPath id="clip0">
<rect width="57" height="55" fill="white"/>
</clipPath>
</defs>
</svg>
