<svg width="55" height="59" viewBox="0 0 55 59" fill="none" xmlns="http://www.w3.org/2000/svg">
<g filter="url(#filter0_d)">
<path d="M35.4838 26.129C33.5269 26.129 31.9354 27.6915 31.9354 29.6129C31.9354 31.5343 33.5269 33.0968 35.4838 33.0968C37.4408 33.0968 39.0322 31.5343 39.0322 29.6129C39.0322 27.6915 37.4408 26.129 35.4838 26.129ZM35.4838 31.3548C34.5053 31.3548 33.7096 30.5736 33.7096 29.6129C33.7096 28.6522 34.5053 27.871 35.4838 27.871C36.4623 27.871 37.258 28.6522 37.258 29.6129C37.258 30.5736 36.4623 31.3548 35.4838 31.3548Z" fill="#1A3B42"/>
<path d="M43.9742 8.53897L42.4386 8.03555C41.1337 3.28006 36.8047 0 31.7403 0H26.6128C14.3842 0 4.43542 9.7679 4.43542 21.7742V33.9677C4.43542 37.1555 6.94147 39.7754 10.1199 40.0384C10.8216 43.4204 12.5479 46.5454 15.0806 48.9911V54H16.8548V47.9032H20.4032V46.1613H16.8548V42.6774H22.1774V54H23.9516V53.6507C25.1136 53.8824 26.3024 54 27.4999 54C36.0773 54 43.2503 47.9921 44.8888 40.0384C48.0628 39.771 50.5645 37.152 50.5645 33.9677V17.5152C50.5645 13.4364 47.9156 9.828 43.9742 8.53897ZM6.20962 33.9677C6.20962 31.8652 7.73631 30.1059 9.75801 29.7009V36.5806C9.75801 37.1381 9.7926 37.692 9.84671 38.2433C7.78244 37.8723 6.20962 36.1007 6.20962 33.9677ZM20.4032 40.9355H18.629V39.1936H20.4032V40.9355ZM16.8548 37.4516V35.7245L16.5603 35.4649C15.6199 34.6366 15.0806 33.4556 15.0806 32.2258V31.4036L15.8745 24.3871H23.1567L23.9516 31.4036V32.2258C23.9516 33.4565 23.4122 34.6366 22.4728 35.4649L22.1774 35.7245V37.4516H16.8548ZM43.4677 36.5806C43.4677 45.225 36.3044 52.2581 27.4999 52.2581C26.2988 52.2581 25.1101 52.1196 23.9516 51.8618V46.4313C25.0844 46.8258 26.2722 47.0323 27.4999 47.0323C33.3699 47.0323 38.1451 42.3438 38.1451 36.5806H36.3709C36.3709 41.3832 32.3914 45.2903 27.4999 45.2903C26.2589 45.2903 25.0711 45.0316 23.9516 44.5491V42.6774C23.9516 41.7167 23.1558 40.9355 22.1774 40.9355V39.1936H23.9516V36.484C25.0835 35.3474 25.7257 33.8171 25.7257 32.2258V31.3548L24.7455 22.6452H14.2866L13.3117 31.259L13.3064 32.2258C13.3064 33.8162 13.9487 35.3474 15.0806 36.484V39.1936H16.8548V40.9355C15.8763 40.9355 15.0806 41.7167 15.0806 42.6774V46.3991C12.8149 43.6303 11.5322 40.1673 11.5322 36.5806V25.2581C11.5322 21.897 14.3177 19.1613 17.7419 19.1613H30.3111C33.6706 19.1613 36.9724 18.3104 39.8962 16.6982C42.1113 18.1989 43.4677 20.709 43.4677 23.3689V36.5806ZM45.1558 38.2433C45.209 37.6955 45.2419 37.1415 45.2419 36.5806V29.7009C47.2636 30.1059 48.7903 31.8644 48.7903 33.9677C48.7903 36.0999 47.2192 37.8705 45.1558 38.2433ZM48.7903 29.7087C47.8579 28.7733 46.6231 28.1357 45.2419 27.9406V23.3689C45.2419 19.9321 43.3772 16.6991 40.3761 14.931L39.9193 14.6619L39.4624 14.931C36.6991 16.5588 33.534 17.4194 30.3111 17.4194H17.7419C13.3401 17.4194 9.75801 20.9355 9.75801 25.2581V27.9406C8.3768 28.1357 7.14196 28.7742 6.20962 29.7096V21.7742C6.20962 10.7277 15.3627 1.74194 26.6128 1.74194H31.7403C36.1367 1.74194 39.8732 4.68494 40.8277 8.89868L40.9368 9.38032L43.4136 10.1912C46.6293 11.2433 48.7903 14.1872 48.7903 17.5152V29.7087Z" fill="#1A3B42"/>
<path d="M20.4032 27H18.629V32.2258H20.4032V27Z" fill="#1A3B42"/>
</g>
<defs>
<filter id="filter0_d" x="-2" y="0" width="59" height="59" filterUnits="userSpaceOnUse" color-interpolation-filters="sRGB">
<feFlood flood-opacity="0" result="BackgroundImageFix"/>
<feColorMatrix in="SourceAlpha" type="matrix" values="0 0 0 0 0 0 0 0 0 0 0 0 0 0 0 0 0 0 127 0"/>
<feOffset dy="3"/>
<feGaussianBlur stdDeviation="1"/>
<feColorMatrix type="matrix" values="0 0 0 0 0 0 0 0 0 0 0 0 0 0 0 0 0 0 0.12 0"/>
<feBlend mode="normal" in2="BackgroundImageFix" result="effect1_dropShadow"/>
<feBlend mode="normal" in="SourceGraphic" in2="effect1_dropShadow" result="shape"/>
</filter>
</defs>
</svg>
