<svg width="56" height="55" viewBox="0 0 56 55" fill="none" xmlns="http://www.w3.org/2000/svg">
<g filter="url(#filter0_d)">
<path d="M45.4748 25.0302C45.3009 25.0302 45.1327 24.967 45.0005 24.8518L39.8194 20.3351C39.7413 20.2669 39.6782 20.1827 39.6342 20.0879C39.5903 19.9931 39.5666 19.8899 39.5646 19.7851C39.5626 19.6803 39.5824 19.5763 39.6227 19.4798C39.6629 19.3834 39.7228 19.2967 39.7983 19.2255L44.937 14.3706C45.0411 14.2723 45.1711 14.207 45.3111 14.1828C45.4511 14.1586 45.5949 14.1765 45.725 14.2343C45.8552 14.2922 45.9659 14.3874 46.0437 14.5084C46.1215 14.6293 46.1629 14.7708 46.163 14.9154V17.0849H52.8108C53.0043 17.0849 53.1899 17.1632 53.3268 17.3026C53.4636 17.442 53.5405 17.6311 53.5405 17.8282V21.5444C53.5405 21.7415 53.4636 21.9306 53.3268 22.0699C53.1899 22.2093 53.0043 22.2876 52.8108 22.2876H46.2046V24.2884C46.2046 24.4856 46.1277 24.6746 45.9908 24.814C45.854 24.9534 45.6684 25.0317 45.4748 25.0317V25.0302ZM41.3883 19.748L44.7451 22.6726V21.5429C44.7451 21.3458 44.822 21.1567 44.9588 21.0173C45.0957 20.878 45.2813 20.7997 45.4748 20.7997H52.0811V18.5699H45.4332C45.2397 18.5699 45.0541 18.4916 44.9172 18.3522C44.7804 18.2129 44.7035 18.0238 44.7035 17.8267V16.6182L41.3883 19.748Z" fill="#263238"/>
<path d="M10.5252 25.0302C10.3316 25.0302 10.146 24.9519 10.0092 24.8125C9.87233 24.6731 9.79545 24.4841 9.79545 24.287V22.2861H3.1892C2.99567 22.2861 2.81006 22.2078 2.67321 22.0685C2.53635 21.9291 2.45947 21.74 2.45947 21.5429V17.8267C2.45947 17.6296 2.53635 17.4405 2.67321 17.3011C2.81006 17.1617 2.99567 17.0834 3.1892 17.0834H9.83704V14.9154C9.83707 14.7708 9.87852 14.6293 9.9563 14.5084C10.0341 14.3874 10.1448 14.2922 10.2749 14.2343C10.4051 14.1765 10.5489 14.1586 10.6889 14.1828C10.8289 14.207 10.9589 14.2723 11.063 14.3706L16.2017 19.2255C16.2772 19.2967 16.3371 19.3834 16.3774 19.4798C16.4176 19.5763 16.4374 19.6803 16.4354 19.7851C16.4334 19.8899 16.4097 19.9931 16.3658 20.0879C16.3218 20.1827 16.2587 20.2669 16.1806 20.3351L10.9995 24.8518C10.8673 24.9669 10.6991 25.0302 10.5252 25.0302ZM3.91893 20.7997H10.5252C10.7187 20.7997 10.9043 20.878 11.0412 21.0173C11.178 21.1567 11.2549 21.3458 11.2549 21.5429V22.6689L14.6117 19.7443L11.2994 16.6152V17.8245C11.2994 18.0216 11.2225 18.2106 11.0857 18.35C10.9488 18.4894 10.7632 18.5677 10.5697 18.5677H3.91893V20.7997Z" fill="#263238"/>
<path d="M39.71 49.3082C39.5888 49.3082 39.4696 49.2774 39.3631 49.2187C39.2565 49.16 39.166 49.0752 39.0997 48.9719C39.0334 48.8687 38.9933 48.7503 38.9832 48.6273C38.973 48.5044 38.9931 48.3808 39.0415 48.2677C40.0381 45.9017 40.6564 43.3885 40.8732 40.8234C41.1824 36.7861 40.5261 32.7327 38.9605 29.0103L37.8054 26.2023C36.1228 22.142 36.0908 17.5675 37.7163 13.4832L40.6134 6.15405C40.6877 5.97421 40.8285 5.83135 41.0053 5.7563C41.1821 5.68125 41.3808 5.68004 41.5585 5.75293C41.7362 5.82582 41.8787 5.96695 41.9551 6.14587C42.0315 6.3248 42.0358 6.52715 41.967 6.70926L39.07 14.0384C37.5889 17.7599 37.6178 21.9279 39.1503 25.6278L40.3054 28.4357C41.9629 32.3802 42.6565 36.6753 42.3268 40.9527C42.0955 43.6773 41.4382 46.3467 40.3799 48.8601C40.3233 48.9932 40.2298 49.1066 40.1107 49.1862C39.9917 49.2659 39.8524 49.3083 39.71 49.3082Z" fill="#263238"/>
<path d="M16.29 49.3082C16.1478 49.3085 16.0087 49.2664 15.8897 49.1871C15.7706 49.1079 15.677 48.995 15.6201 48.8623C14.5609 46.3485 13.9039 43.6782 13.6739 40.9527C13.3437 36.6749 14.037 32.3793 15.6945 28.4343L16.8497 25.627C18.3822 21.9271 18.4111 17.7592 16.93 14.0376L14.0329 6.70926C13.9641 6.52715 13.9684 6.3248 14.0448 6.14587C14.1213 5.96695 14.2637 5.82582 14.4414 5.75293C14.6191 5.68004 14.8178 5.68125 14.9947 5.7563C15.1715 5.83135 15.3123 5.97421 15.3866 6.15405L18.2836 13.4832C19.9091 17.5676 19.8771 22.1419 18.1946 26.2023L17.0394 29.0103C15.4739 32.7327 14.8179 36.7862 15.1275 40.8234C15.3437 43.3887 15.9619 45.9022 16.9584 48.2684C17.0069 48.3815 17.0269 48.5051 17.0168 48.6281C17.0066 48.751 16.9666 48.8694 16.9002 48.9727C16.8339 49.0759 16.7434 49.1607 16.6369 49.2194C16.5303 49.2781 16.4111 49.3089 16.29 49.309V49.3082Z" fill="#263238"/>
<path d="M28.073 30.4975C24.1359 30.4851 20.2236 29.8629 16.4703 28.652C16.2856 28.5929 16.1315 28.4614 16.0419 28.2866C15.9523 28.1117 15.9346 27.9078 15.9927 27.7196C16.0508 27.5315 16.1798 27.3745 16.3515 27.2833C16.5232 27.1921 16.7234 27.174 16.9081 27.2332C24.12 29.6014 31.8801 29.6014 39.0919 27.2332C39.276 27.1742 39.4754 27.192 39.6467 27.2824C39.818 27.3729 39.9471 27.5287 40.0058 27.7159C40.0646 27.9031 40.0482 28.1063 39.9602 28.2812C39.8722 28.456 39.7198 28.5883 39.5363 28.649C35.8327 29.8681 31.9652 30.4918 28.073 30.4975Z" fill="#263238"/>
<path d="M28 49.3112C27.8065 49.3112 27.6209 49.2329 27.484 49.0935C27.3472 48.9541 27.2703 48.7651 27.2703 48.568V42.6369C27.2829 41.8525 27.0532 41.084 26.6135 40.4399C23.9478 36.6709 15.5071 35.7574 14.554 35.669C14.3654 35.6461 14.193 35.5491 14.0734 35.3987C13.9538 35.2483 13.8966 35.0564 13.9138 34.8637C13.931 34.671 14.0213 34.4927 14.1655 34.3667C14.3097 34.2408 14.4965 34.1771 14.6861 34.1892C16.3521 34.349 24.814 35.3583 27.7943 39.5725C28.4145 40.4684 28.7418 41.5407 28.7298 42.6369V48.568C28.7298 48.7651 28.6529 48.9541 28.516 49.0935C28.3792 49.2329 28.1936 49.3112 28 49.3112Z" fill="#263238"/>
<path d="M28 43.3801C27.8064 43.3801 27.6208 43.3018 27.484 43.1624C27.3471 43.0231 27.2702 42.834 27.2702 42.6369C27.2578 41.5414 27.5844 40.4698 28.2036 39.574C31.0823 35.5077 38.9634 34.4248 41.311 34.1892C41.4063 34.1794 41.5026 34.1889 41.5944 34.217C41.6861 34.2452 41.7716 34.2915 41.8458 34.3532C41.92 34.415 41.9815 34.4911 42.0268 34.577C42.0722 34.663 42.1004 34.7573 42.11 34.8544C42.1196 34.9515 42.1103 35.0496 42.0827 35.1431C42.055 35.2365 42.0096 35.3235 41.949 35.3991C41.8883 35.4747 41.8136 35.5373 41.7292 35.5835C41.6448 35.6297 41.5523 35.6585 41.4569 35.6682C39.8946 35.8243 31.9726 36.7905 29.3865 40.4421C28.947 41.0857 28.7173 41.8538 28.7297 42.6376C28.7295 42.8346 28.6525 43.0235 28.5157 43.1627C28.3789 43.3019 28.1934 43.3801 28 43.3801Z" fill="#263238"/>
<path d="M28 24.4809C27.8065 24.4809 27.6208 24.4026 27.484 24.2633C27.3471 24.1239 27.2703 23.9348 27.2703 23.7377V23.2918C27.2703 23.0946 27.3471 22.9056 27.484 22.7662C27.6208 22.6268 27.8065 22.5485 28 22.5485C28.1935 22.5485 28.3791 22.6268 28.516 22.7662C28.6528 22.9056 28.7297 23.0946 28.7297 23.2918V23.7377C28.7297 23.9348 28.6528 24.1239 28.516 24.2633C28.3791 24.4026 28.1935 24.4809 28 24.4809Z" fill="#263238"/>
</g>
<defs>
<filter id="filter0_d" x="-1" y="0" width="58" height="60" filterUnits="userSpaceOnUse" color-interpolation-filters="sRGB">
<feFlood flood-opacity="0" result="BackgroundImageFix"/>
<feColorMatrix in="SourceAlpha" type="matrix" values="0 0 0 0 0 0 0 0 0 0 0 0 0 0 0 0 0 0 127 0"/>
<feOffset dy="3"/>
<feGaussianBlur stdDeviation="1"/>
<feColorMatrix type="matrix" values="0 0 0 0 0 0 0 0 0 0 0 0 0 0 0 0 0 0 0.12 0"/>
<feBlend mode="normal" in2="BackgroundImageFix" result="effect1_dropShadow"/>
<feBlend mode="normal" in="SourceGraphic" in2="effect1_dropShadow" result="shape"/>
</filter>
</defs>
</svg>
