<svg width="55" height="59" viewBox="0 0 55 59" fill="none" xmlns="http://www.w3.org/2000/svg">
<g filter="url(#filter0_d)">
<path d="M38.8125 41.25H41.8381C42.3274 41.2513 42.8121 41.1538 43.2641 40.9631C43.7162 40.7724 44.1266 40.4923 44.4716 40.1389C44.6299 39.9778 44.7188 39.7592 44.7188 39.5312C44.7188 39.3033 44.6299 39.0847 44.4716 38.9236C44.3134 38.7624 44.0988 38.6718 43.875 38.6718C43.6512 38.6718 43.4366 38.7624 43.2784 38.9236C43.0897 39.1168 42.8652 39.27 42.618 39.3743C42.3708 39.4786 42.1057 39.532 41.8381 39.5312H38.8125C38.5887 39.5312 38.3741 39.6218 38.2159 39.783C38.0576 39.9441 37.9688 40.1627 37.9688 40.3906C37.9688 40.6185 38.0576 40.8371 38.2159 40.9983C38.3741 41.1595 38.5887 41.25 38.8125 41.25Z" fill="#263238"/>
<path d="M41.3438 27.5C40.6762 27.5 40.0237 27.7016 39.4687 28.0793C38.9137 28.457 38.4811 28.9939 38.2257 29.622C37.9702 30.2501 37.9034 30.9413 38.0336 31.6081C38.1638 32.2749 38.4853 32.8874 38.9573 33.3682C39.4293 33.8489 40.0306 34.1763 40.6853 34.309C41.34 34.4416 42.0186 34.3735 42.6353 34.1133C43.252 33.8532 43.7791 33.4126 44.15 32.8473C44.5208 32.282 44.7188 31.6174 44.7188 30.9375C44.7177 30.0261 44.3618 29.1524 43.7291 28.508C43.0964 27.8635 42.2385 27.501 41.3438 27.5ZM41.3438 32.6563C41.01 32.6563 40.6837 32.5554 40.4062 32.3666C40.1287 32.1777 39.9124 31.9093 39.7847 31.5952C39.657 31.2812 39.6236 30.9356 39.6887 30.6022C39.7538 30.2688 39.9145 29.9625 40.1505 29.7222C40.3865 29.4818 40.6872 29.3181 41.0145 29.2518C41.3419 29.1855 41.6812 29.2195 41.9895 29.3496C42.2979 29.4797 42.5614 29.7 42.7469 29.9826C42.9323 30.2653 43.0313 30.5976 43.0313 30.9375C43.0307 31.3932 42.8528 31.83 42.5364 32.1522C42.2201 32.4745 41.7911 32.6557 41.3438 32.6563Z" fill="#263238"/>
<path d="M49.7813 23.2031C49.2806 23.2031 48.7912 23.3543 48.375 23.6376C47.9587 23.9209 47.6343 24.3236 47.4427 24.7946C47.2511 25.2657 47.201 25.7841 47.2986 26.2842C47.3963 26.7843 47.6374 27.2437 47.9914 27.6043C48.3454 27.9648 48.7964 28.2104 49.2874 28.3098C49.7784 28.4093 50.2874 28.3583 50.7499 28.1631C51.2124 27.968 51.6078 27.6375 51.8859 27.2136C52.164 26.7896 52.3125 26.2912 52.3125 25.7812C52.3117 25.0977 52.0448 24.4424 51.5703 23.9591C51.0957 23.4758 50.4523 23.2039 49.7813 23.2031ZM49.7813 26.6406C49.6144 26.6406 49.4512 26.5902 49.3125 26.4958C49.1737 26.4014 49.0656 26.2671 49.0017 26.1101C48.9379 25.9531 48.9212 25.7803 48.9537 25.6136C48.9863 25.4469 49.0666 25.2938 49.1846 25.1736C49.3026 25.0534 49.453 24.9715 49.6166 24.9384C49.7803 24.9052 49.95 24.9222 50.1041 24.9873C50.2583 25.0523 50.3901 25.1625 50.4828 25.3038C50.5755 25.4451 50.625 25.6113 50.625 25.7812C50.6247 26.0091 50.5358 26.2275 50.3776 26.3886C50.2194 26.5497 50.005 26.6404 49.7813 26.6406Z" fill="#263238"/>
<path d="M41.3438 15.4688C40.6762 15.4688 40.0237 15.6704 39.4687 16.0481C38.9137 16.4258 38.4811 16.9627 38.2257 17.5908C37.9702 18.2189 37.9034 18.9101 38.0336 19.5769C38.1638 20.2437 38.4853 20.8562 38.9573 21.3369C39.4293 21.8177 40.0306 22.1451 40.6853 22.2777C41.34 22.4103 42.0186 22.3423 42.6353 22.0821C43.252 21.8219 43.7791 21.3813 44.15 20.816C44.5208 20.2507 44.7188 19.5861 44.7188 18.9063C44.7177 17.9949 44.3618 17.1211 43.7291 16.4767C43.0964 15.8323 42.2385 15.4698 41.3438 15.4688ZM41.3438 20.625C41.01 20.625 40.6837 20.5242 40.4062 20.3353C40.1287 20.1465 39.9124 19.878 39.7847 19.564C39.657 19.2499 39.6236 18.9043 39.6887 18.5709C39.7538 18.2375 39.9145 17.9313 40.1505 17.6909C40.3865 17.4505 40.6872 17.2868 41.0145 17.2205C41.3419 17.1542 41.6812 17.1882 41.9895 17.3183C42.2979 17.4484 42.5614 17.6687 42.7469 17.9514C42.9323 18.234 43.0313 18.5663 43.0313 18.9063C43.0307 19.3619 42.8528 19.7988 42.5364 20.121C42.2201 20.4432 41.7911 20.6245 41.3438 20.625Z" fill="#263238"/>
<path d="M7.38281 53.2812H16.2422C16.8064 53.2815 17.3642 53.1598 17.8787 52.924C17.9567 53.0345 18.0594 53.1246 18.1783 53.1867C18.2972 53.2489 18.4289 53.2813 18.5625 53.2812H48.0938C48.2819 53.2812 48.4647 53.2172 48.613 53.0992C48.7613 52.9813 48.8667 52.8162 48.9123 52.6303L49.5963 49.8438H50.625C50.8488 49.8438 51.0634 49.7532 51.2216 49.592C51.3799 49.4309 51.4688 49.2123 51.4688 48.9844V45.5469C51.4688 45.319 51.3799 45.1004 51.2216 44.9392C51.0634 44.778 50.8488 44.6875 50.625 44.6875H48.4881C49.1409 43.9463 49.5688 43.0285 49.7202 42.0448C49.8716 41.0612 49.74 40.0539 49.3413 39.1449C48.9426 38.2358 48.2938 37.4639 47.4734 36.9224C46.6531 36.3809 45.6963 36.0931 44.7188 36.0938H36.2812V19.6582C36.2793 18.2222 35.7646 16.8359 34.8331 15.758C33.9016 14.68 32.617 13.9839 31.2188 13.7995V11.1719C31.2188 10.944 31.1299 10.7254 30.9716 10.5642C30.8134 10.403 30.5988 10.3125 30.375 10.3125V3.4375C30.375 3.20958 30.2861 2.99099 30.1279 2.82983C29.9696 2.66867 29.755 2.57813 29.5312 2.57812H21.3047C20.8014 2.57872 20.3188 2.78263 19.9629 3.14512C19.607 3.50761 19.4068 3.99908 19.4062 4.51172V6.01562C19.4062 6.24355 19.4951 6.46213 19.6534 6.62329C19.8116 6.78446 20.0262 6.875 20.25 6.875H23.625V10.3125C23.4012 10.3125 23.1866 10.403 23.0284 10.5642C22.8701 10.7254 22.7812 10.944 22.7812 11.1719V13.7995C21.383 13.9839 20.0984 14.68 19.1669 15.758C18.2354 16.8359 17.7207 18.2222 17.7188 19.6582V28.6477C17.249 28.457 16.7479 28.3592 16.2422 28.3594C15.9626 28.3591 15.6945 28.2458 15.4967 28.0444C15.299 27.843 15.1878 27.57 15.1875 27.2852V26.6406C15.4113 26.6406 15.6259 26.5501 15.7841 26.3889C15.9424 26.2278 16.0312 26.0092 16.0312 25.7812V22.3438C16.0312 22.1158 15.9424 21.8972 15.7841 21.7361C15.6259 21.5749 15.4113 21.4844 15.1875 21.4844H8.4375C8.21372 21.4844 7.99911 21.5749 7.84088 21.7361C7.68265 21.8972 7.59375 22.1158 7.59375 22.3438V25.7812C7.59375 26.0092 7.68265 26.2278 7.84088 26.3889C7.99911 26.5501 8.21372 26.6406 8.4375 26.6406V27.2852C8.43719 27.57 8.32598 27.843 8.12825 28.0444C7.93052 28.2458 7.66244 28.3591 7.38281 28.3594C6.32024 28.3606 5.30154 28.7911 4.55019 29.5563C3.79884 30.3216 3.3762 31.3592 3.375 32.4414V49.1992C3.3762 50.2815 3.79884 51.319 4.55019 52.0843C5.30154 52.8496 6.32024 53.28 7.38281 53.2812ZM19.4062 29.9404V27.5H27.8438V39.5312H20.25V32.4414C20.2506 31.5352 19.9536 30.6548 19.4062 29.9404ZM47.435 51.5625H36.2812V49.8438H47.8569L47.435 51.5625ZM49.7812 48.125H36.2812V46.4062H49.7812V48.125ZM44.7188 37.8125C45.6139 37.8125 46.4723 38.1747 47.1052 38.8193C47.7382 39.464 48.0938 40.3383 48.0938 41.25C48.0938 42.1617 47.7382 43.036 47.1052 43.6807C46.4723 44.3253 45.6139 44.6875 44.7188 44.6875H36.2812V37.8125H44.7188ZM24.4688 12.0312H29.5312V13.75H24.4688V12.0312ZM21.0938 5.15625V4.51172C21.0938 4.45474 21.116 4.40009 21.1555 4.3598C21.1951 4.31951 21.2487 4.29688 21.3047 4.29688H23.625V5.15625H21.0938ZM25.3125 4.29688H28.6875V10.3125H25.3125V4.29688ZM23.5195 15.4688H30.4805C31.571 15.47 32.6165 15.9118 33.3876 16.6972C34.1588 17.4826 34.5925 18.5475 34.5938 19.6582V51.5625H19.5069C19.9908 50.8731 20.2507 50.0467 20.25 49.1992V41.25H28.6875C28.9113 41.25 29.1259 41.1595 29.2841 40.9983C29.4424 40.8371 29.5312 40.6185 29.5312 40.3906V26.6406C29.5312 26.4127 29.4424 26.1941 29.2841 26.033C29.1259 25.8718 28.9113 25.7812 28.6875 25.7812H19.4062V19.6582C19.4075 18.5475 19.8412 17.4826 20.6124 16.6972C21.3835 15.9118 22.429 15.47 23.5195 15.4688ZM9.28125 23.2031H14.3438V24.9219H9.28125V23.2031ZM7.38281 30.0781C8.10984 30.0773 8.80685 29.7828 9.32094 29.2592C9.83502 28.7356 10.1242 28.0256 10.125 27.2852V26.6406H13.5V27.2852C13.5008 28.0256 13.79 28.7356 14.3041 29.2592C14.8181 29.7828 15.5152 30.0773 16.2422 30.0781C16.8574 30.0788 17.4471 30.3281 17.8821 30.7711C18.3171 31.2141 18.5618 31.8148 18.5625 32.4414V49.1992C18.5618 49.8258 18.3171 50.4265 17.8821 50.8695C17.4471 51.3126 16.8574 51.5618 16.2422 51.5625H7.38281C6.76764 51.5618 6.17787 51.3126 5.74287 50.8695C5.30788 50.4265 5.0632 49.8258 5.0625 49.1992V47.2656H12.6562C12.88 47.2656 13.0946 47.1751 13.2529 47.0139C13.4111 46.8528 13.5 46.6342 13.5 46.4062V34.375C13.5 34.1471 13.4111 33.9285 13.2529 33.7673C13.0946 33.6062 12.88 33.5156 12.6562 33.5156H5.0625V32.4414C5.0632 31.8148 5.30788 31.2141 5.74287 30.7711C6.17787 30.3281 6.76764 30.0788 7.38281 30.0781ZM5.0625 35.2344H11.8125V45.5469H5.0625V35.2344Z" fill="#263238"/>
<path d="M32.0625 42.1094C32.2863 42.1094 32.5009 42.0188 32.6591 41.8577C32.8174 41.6965 32.9062 41.4779 32.9062 41.25V40.3906C32.9062 40.1627 32.8174 39.9441 32.6591 39.783C32.5009 39.6218 32.2863 39.5312 32.0625 39.5312C31.8387 39.5312 31.6241 39.6218 31.4659 39.783C31.3076 39.9441 31.2188 40.1627 31.2188 40.3906V41.25C31.2188 41.4779 31.3076 41.6965 31.4659 41.8577C31.6241 42.0188 31.8387 42.1094 32.0625 42.1094Z" fill="#263238"/>
<path d="M32.0625 48.125C32.2863 48.125 32.5009 48.0345 32.6591 47.8733C32.8174 47.7121 32.9062 47.4935 32.9062 47.2656V44.6875C32.9062 44.4596 32.8174 44.241 32.6591 44.0798C32.5009 43.9187 32.2863 43.8281 32.0625 43.8281C31.8387 43.8281 31.6241 43.9187 31.4659 44.0798C31.3076 44.241 31.2188 44.4596 31.2188 44.6875V47.2656C31.2188 47.4935 31.3076 47.7121 31.4659 47.8733C31.6241 48.0345 31.8387 48.125 32.0625 48.125Z" fill="#263238"/>
</g>
<defs>
<filter id="filter0_d" x="-2" y="0" width="58" height="60" filterUnits="userSpaceOnUse" color-interpolation-filters="sRGB">
<feFlood flood-opacity="0" result="BackgroundImageFix"/>
<feColorMatrix in="SourceAlpha" type="matrix" values="0 0 0 0 0 0 0 0 0 0 0 0 0 0 0 0 0 0 127 0"/>
<feOffset dy="3"/>
<feGaussianBlur stdDeviation="1"/>
<feColorMatrix type="matrix" values="0 0 0 0 0 0 0 0 0 0 0 0 0 0 0 0 0 0 0.12 0"/>
<feBlend mode="normal" in2="BackgroundImageFix" result="effect1_dropShadow"/>
<feBlend mode="normal" in="SourceGraphic" in2="effect1_dropShadow" result="shape"/>
</filter>
</defs>
</svg>
