<svg width="55" height="66" viewBox="0 0 55 66" fill="none" xmlns="http://www.w3.org/2000/svg">
<g filter="url(#filter0_d)">
<g clip-path="url(#clip0)">
<path d="M22.6187 0C17.0655 0 12.0303 1.26427 8.29945 3.38357C4.56865 5.50288 2.00757 8.58404 2.00757 12.2658V47.9481C2.00757 51.63 4.56845 54.711 8.29945 56.8303C12.0305 58.9496 17.0655 60.2139 22.6187 60.2139C27.4929 60.2139 31.9649 59.2346 35.5083 57.5651C37.3491 59.2212 39.6723 60.2139 42.1961 60.2139C48.147 60.2139 52.9924 54.709 52.9924 47.9481C52.9924 41.5832 48.6978 36.3335 43.2298 35.7398V12.2658C43.2298 8.58404 40.6685 5.50288 36.9375 3.38357C33.2065 1.26427 28.1719 0 22.6187 0ZM22.6187 2.23014C27.9067 2.23014 32.6863 3.46207 36.0601 5.37844C39.4338 7.2948 41.2668 9.78921 41.2668 12.2658C41.2668 14.7424 39.4336 17.2368 36.0601 19.1531C32.6865 21.0695 27.9065 22.3014 22.6187 22.3014C17.3308 22.3014 12.551 21.0695 9.17729 19.1531C5.80355 17.2368 3.97053 14.7424 3.97053 12.2658C3.97053 9.78921 5.80374 7.2948 9.17729 5.37844C12.5508 3.46207 17.3307 2.23014 22.6187 2.23014ZM22.6187 3.90275C17.5301 3.90275 12.9409 5.11037 9.83567 6.87419C6.72653 8.64047 5.44275 10.6596 5.44275 12.2658C5.43883 12.5738 5.65554 12.8269 5.92662 12.8311C6.19771 12.8356 6.42051 12.5894 6.42423 12.2814C6.42423 12.276 6.42423 12.2709 6.42423 12.2656C6.42423 11.4192 7.34644 9.53475 10.2746 7.87151C13.1919 6.21452 17.6681 5.01782 22.6187 5.01782C22.8898 5.02228 23.1126 4.77607 23.1163 4.46809C23.1202 4.16011 22.9035 3.90699 22.6324 3.90275C22.6279 3.90275 22.6232 3.90275 22.6187 3.90275ZM3.97053 17.5751C5.06174 18.9524 6.55222 20.1556 8.29945 21.148C12.0303 23.2673 17.0655 24.5316 22.6187 24.5316C28.1719 24.5316 33.2067 23.2673 36.9375 21.148C38.6847 20.1556 40.1754 18.9522 41.2668 17.5751V24.16C41.2668 26.6366 39.4336 29.131 36.0601 31.0474C32.6865 32.9637 27.9067 34.1952 22.6187 34.1952C17.3307 34.1952 12.551 32.9637 9.17729 31.0474C5.80374 29.131 3.97053 26.6366 3.97053 24.16V17.5751ZM3.97053 29.4689C5.06174 30.846 6.55222 32.0494 8.29945 33.0418C12.0303 35.1611 17.0657 36.4254 22.6187 36.4254C28.1717 36.4254 33.2067 35.1611 36.9375 33.0418C38.6847 32.0494 40.1754 30.846 41.2668 29.4689V35.7311C36.6978 36.1767 32.9317 39.8692 31.7714 44.7637C29.0696 45.6042 25.9463 46.0895 22.6187 46.0895C17.3307 46.0895 12.551 44.8575 9.17729 42.9412C5.80355 41.0248 3.97053 38.5306 3.97053 36.0538V29.4689ZM42.1961 37.9124C47.0862 37.9124 51.0294 42.3923 51.0294 47.9481C51.0294 53.5038 47.0862 57.9837 42.1961 57.9837C37.306 57.9837 33.3628 53.5038 33.3628 47.9481C33.3628 42.3923 37.306 37.9124 42.1961 37.9124ZM41.2863 38.9051C41.2419 38.9037 41.1977 38.9091 41.1547 38.9211C37.4324 39.91 34.6261 43.4019 34.0969 47.7032C34.0539 48.0072 34.2361 48.2933 34.5036 48.3421C34.7712 48.391 35.023 48.184 35.066 47.8801C35.067 47.8727 35.068 47.8653 35.0688 47.8578C35.5422 44.0092 38.0478 40.8917 41.3783 40.007C41.6431 39.941 41.8106 39.6435 41.7525 39.3429C41.7042 39.0926 41.5118 38.912 41.2863 38.9051ZM42.1816 41.242C41.6398 41.2512 41.207 41.7572 41.2146 42.3727V46.833H37.2887C36.7467 46.8243 36.3009 47.3165 36.2933 47.9322C36.2856 48.548 36.7188 49.0545 37.2608 49.0632C37.27 49.0634 37.2793 49.0634 37.2885 49.0632H41.2144V53.5234C41.2068 54.1392 41.64 54.6456 42.182 54.6543C42.7239 54.663 43.1697 54.1708 43.1774 53.5551C43.1776 53.5446 43.1776 53.5341 43.1774 53.5237V49.0634H47.1033C47.6453 49.0721 48.0911 48.5799 48.0987 47.9641C48.1064 47.3484 47.6732 46.8419 47.1312 46.8332C47.122 46.833 47.1127 46.833 47.1035 46.8332H43.1776V42.3729C43.1852 41.7572 42.752 41.2507 42.2098 41.2423C42.2004 41.2418 42.191 41.2418 42.1816 41.242ZM3.97053 41.3631C5.06174 42.7405 6.55222 43.9436 8.29945 44.9361C12.0303 47.0554 17.0657 48.3196 22.6187 48.3196C25.7694 48.3196 28.7514 47.9066 31.4239 47.1671C31.4096 47.4256 31.3998 47.6854 31.3998 47.9481C31.3998 50.9614 32.364 53.7235 33.9577 55.8615C30.8235 57.1811 26.8881 57.9837 22.6185 57.9837C17.3305 57.9837 12.5508 56.7518 9.17709 54.8354C5.80335 52.9191 3.97053 50.4247 3.97053 47.9481V41.3631Z" fill="#1A3B42"/>
</g>
</g>
<defs>
<filter id="filter0_d" x="-1" y="0" width="57" height="65.2139" filterUnits="userSpaceOnUse" color-interpolation-filters="sRGB">
<feFlood flood-opacity="0" result="BackgroundImageFix"/>
<feColorMatrix in="SourceAlpha" type="matrix" values="0 0 0 0 0 0 0 0 0 0 0 0 0 0 0 0 0 0 127 0"/>
<feOffset dy="3"/>
<feGaussianBlur stdDeviation="1"/>
<feColorMatrix type="matrix" values="0 0 0 0 0 0 0 0 0 0 0 0 0 0 0 0 0 0 0.12 0"/>
<feBlend mode="normal" in2="BackgroundImageFix" result="effect1_dropShadow"/>
<feBlend mode="normal" in="SourceGraphic" in2="effect1_dropShadow" result="shape"/>
</filter>
<clipPath id="clip0">
<rect x="1" width="53" height="60.2139" fill="white"/>
</clipPath>
</defs>
</svg>
