<svg width="60" height="60" viewBox="0 0 60 60" fill="none" xmlns="http://www.w3.org/2000/svg">
<g filter="url(#filter0_d)">
<g clip-path="url(#clip0)">
<path d="M43.6467 23.4423C45.7561 21.3757 45.7561 18.0133 43.6467 15.9467C41.6152 13.9573 38.3574 13.8834 36.2349 15.726C34.1127 13.8834 30.855 13.9569 28.8234 15.9467C26.7141 18.0133 26.7141 21.3757 28.8234 23.4423L36.2349 30.7034L43.6467 23.4423ZM31.1447 18.2214C31.5595 17.8148 32.1038 17.6117 32.649 17.6117C33.1933 17.6117 33.7385 17.8153 34.1529 18.221L36.2353 20.2608L38.3168 18.2214C39.1461 17.4086 40.4958 17.4086 41.3251 18.221C42.1548 19.0338 42.1548 20.3556 41.3251 21.1684L36.2349 26.1547L31.1447 21.1684C30.3154 20.3556 30.3154 19.0338 31.1447 18.2214Z" fill="#1A3B42"/>
<path d="M57.5219 32.673C56.8998 31.2497 55.7578 30.1604 54.306 29.6065C53.1636 29.1705 51.9391 29.1109 50.78 29.4218V15.7235L52.8107 17.318L54.8636 14.8083L36.0041 0L17.1446 14.8083L19.1979 17.318L21.4094 15.5812V30.4507L18.0452 29.9497C14.0663 29.3564 9.96258 30.6744 7.065 33.4749L2 38.2619L4.27936 40.5765L9.35119 35.7832L9.36487 35.7698C11.5613 33.6436 14.5452 32.6814 17.5518 33.1292L32.2567 35.3204C33.5867 35.5185 34.504 36.7463 34.3451 38.1155C34.2635 38.8183 33.9114 39.436 33.3534 39.8539C32.8314 40.2459 32.1909 40.4091 31.5509 40.3138L17.6974 38.2497L17.204 41.4292L31.057 43.4933C31.3445 43.5361 31.6321 43.5575 31.917 43.5575C33.1501 43.5575 34.3442 43.1618 35.3491 42.4081C36.5416 41.5144 37.3431 40.1754 37.5746 38.708L51.2845 32.6508C51.8686 32.3932 52.5188 32.3759 53.1144 32.6034C53.7382 32.8413 54.2317 33.3155 54.5034 33.9382C55.0665 35.2272 54.4957 36.7307 53.2306 37.2897L33.4141 46.0517L13.774 43.2088L2.03546 52.4982L4.09821 55L14.7178 46.5968L33.8867 49.3713L54.5812 40.2211C57.4638 38.9467 58.7827 35.5608 57.5219 32.673ZM32.7502 32.1405L24.6923 30.94V13.0035L36.0041 4.12189L47.497 13.1458V30.7961L37.1119 35.3842C36.3267 33.6977 34.736 32.4364 32.7502 32.1405Z" fill="#1A3B42"/>
</g>
</g>
<defs>
<filter id="filter0_d" x="0" y="0" width="60" height="60" filterUnits="userSpaceOnUse" color-interpolation-filters="sRGB">
<feFlood flood-opacity="0" result="BackgroundImageFix"/>
<feColorMatrix in="SourceAlpha" type="matrix" values="0 0 0 0 0 0 0 0 0 0 0 0 0 0 0 0 0 0 127 0"/>
<feOffset dy="3"/>
<feGaussianBlur stdDeviation="1"/>
<feColorMatrix type="matrix" values="0 0 0 0 0 0 0 0 0 0 0 0 0 0 0 0 0 0 0.12 0"/>
<feBlend mode="normal" in2="BackgroundImageFix" result="effect1_dropShadow"/>
<feBlend mode="normal" in="SourceGraphic" in2="effect1_dropShadow" result="shape"/>
</filter>
<clipPath id="clip0">
<rect x="2" width="56" height="55" fill="white"/>
</clipPath>
</defs>
</svg>
