<svg width="59" height="58" viewBox="0 0 59 58" fill="none" xmlns="http://www.w3.org/2000/svg">
<g filter="url(#filter0_d)">
<g clip-path="url(#clip0)">
<path d="M25.5637 30.4971C25.5637 27.5694 23.1818 25.1875 20.2541 25.1875C17.3263 25.1875 14.9443 27.5694 14.9443 30.4971H18.167C18.167 29.3463 19.1033 28.4101 20.2541 28.4101C21.4048 28.4101 22.3411 29.3463 22.3411 30.4971H25.5637Z" fill="#263238"/>
<path d="M38.7459 25.1874C35.8182 25.1874 33.4363 27.5692 33.4363 30.497H36.6589C36.6589 29.3462 37.5951 28.41 38.7459 28.41C39.8967 28.41 40.833 29.3462 40.833 30.497H44.0556C44.0556 27.5692 41.6738 25.1874 38.7459 25.1874Z" fill="#263238"/>
<path d="M29.5001 39.9266C27.4626 39.9266 25.5523 38.8339 24.5142 37.075L21.7388 38.7126C23.3536 41.4492 26.3275 43.1491 29.5 43.1491C32.6724 43.1491 35.6463 41.4492 37.2611 38.7126L34.4857 37.0749C33.4478 38.8338 31.5374 39.9266 29.5001 39.9266Z" fill="#263238"/>
<path d="M54.9032 24.7895C53.8769 23.7644 52.5881 23.0866 51.1892 22.8211C48.168 13.4854 39.4042 7.05759 29.5 7.05759H28.4197C25.8253 7.05759 23.7146 4.9468 23.7146 2.35253H20.492C20.492 4.11299 21.0695 5.74062 22.0439 7.05759H21.0229C18.4286 7.05759 16.3179 4.9468 16.3179 2.35253H13.0952C13.0952 5.85399 15.3778 8.83043 18.5323 9.87719C13.5432 12.62 9.6327 17.1914 7.81094 22.8211C6.41201 23.0866 5.12286 23.7646 4.09568 24.7907C2.74425 26.1436 2 27.9412 2 29.8525C2 31.7404 2.72827 33.5215 4.05079 34.8679C5.08438 35.9202 6.38973 36.6146 7.81094 36.884C10.8318 46.2198 19.5956 52.6475 29.5 52.6475C39.4044 52.6475 48.168 46.2198 51.1891 36.884C52.6103 36.6146 53.9156 35.9202 54.9492 34.8679C56.2717 33.5215 57 31.7404 57 29.8525C57 27.9412 56.2557 26.1436 54.9032 24.7895ZM49.9195 33.7865L48.7102 33.8094L48.3945 34.9769C46.094 43.4836 38.3243 49.4247 29.4999 49.4247C20.6754 49.4247 12.9059 43.4837 10.6055 34.9769L10.2898 33.8094L9.08052 33.7865C6.95321 33.7463 5.22254 31.9816 5.22254 29.8525C5.22254 28.8013 5.632 27.8125 6.37418 27.0695C7.09799 26.3464 8.05909 25.9376 9.08019 25.9185L10.2897 25.8957L10.6054 24.728C12.9059 16.2215 20.6755 10.2803 29.5 10.2803C32.4125 10.2803 34.782 12.6498 34.782 15.5624C34.782 18.4749 32.4125 20.8445 29.5 20.8445C26.5875 20.8445 24.218 18.475 24.218 15.5625H20.9953C20.9953 20.252 24.8105 24.0671 29.5 24.0671C34.1895 24.0671 38.0047 20.252 38.0047 15.5625C38.0047 14.2279 37.6949 12.9647 37.1447 11.8395C42.5496 14.1385 46.7947 18.8126 48.3945 24.7281L48.7102 25.8959L49.9197 25.9186C50.9409 25.9377 51.9019 26.3465 52.6245 27.0683C53.368 27.8126 53.7775 28.8014 53.7775 29.8526C53.7773 31.9817 52.0467 33.7464 49.9195 33.7865Z" fill="#263238"/>
</g>
</g>
<defs>
<filter id="filter0_d" x="0" y="0" width="59" height="60" filterUnits="userSpaceOnUse" color-interpolation-filters="sRGB">
<feFlood flood-opacity="0" result="BackgroundImageFix"/>
<feColorMatrix in="SourceAlpha" type="matrix" values="0 0 0 0 0 0 0 0 0 0 0 0 0 0 0 0 0 0 127 0"/>
<feOffset dy="3"/>
<feGaussianBlur stdDeviation="1"/>
<feColorMatrix type="matrix" values="0 0 0 0 0 0 0 0 0 0 0 0 0 0 0 0 0 0 0.12 0"/>
<feBlend mode="normal" in2="BackgroundImageFix" result="effect1_dropShadow"/>
<feBlend mode="normal" in="SourceGraphic" in2="effect1_dropShadow" result="shape"/>
</filter>
<clipPath id="clip0">
<rect x="2" width="55" height="55" fill="white"/>
</clipPath>
</defs>
</svg>
