<svg width="60" height="70" viewBox="0 0 60 70" fill="none" xmlns="http://www.w3.org/2000/svg">
<g filter="url(#filter0_d)">
<g clip-path="url(#clip0)">
<path d="M56.999 33.4726C55.1718 31.3721 54.1239 28.4561 54.1239 25.4726V21.4382C54.1239 20.6582 53.9627 19.9214 53.6783 19.2685C53.6307 16.3048 52.2454 13.5674 50.0252 12.0811L42.8867 7.30193C40.4474 5.66888 37.491 5.83249 35.2346 7.54443C35.0579 5.81715 34.4013 4.14389 33.2607 2.82119L32.8554 2.35116C31.5477 0.835043 29.8092 0 27.9599 0C26.1105 0 24.372 0.835043 23.0644 2.35129C20.3652 5.4813 20.3652 10.5743 23.0646 13.7045L23.4699 14.1746C24.7775 15.6909 26.5161 16.526 28.3653 16.526C28.6532 16.526 28.9379 16.5034 29.2191 16.4634C27.941 17.7376 26.4648 18.7494 24.8645 19.4205C24.1253 19.7304 23.5203 20.3081 23.1077 21.0307L18.3271 15.4874C18.3269 15.4871 17.3333 14.3351 17.3333 14.3351C15.6372 12.3684 13.3821 11.2851 10.9834 11.2851C8.58473 11.2851 6.32975 12.3683 4.63356 14.3351C2.94918 16.2883 2.01523 18.8851 2.00353 21.6472C1.99368 24.0014 2.65475 26.2434 3.88237 28.0746C2.80885 29.6324 2.20795 31.5888 2.20795 33.5998C2.20795 38.2231 5.28642 42.0261 9.19089 42.4034C8.10424 44.1642 7.46353 46.319 7.46353 48.6446V63.6682C7.46353 64.3687 7.95331 64.9365 8.55728 64.9365C9.16124 64.9365 9.65103 64.3687 9.65103 63.6682V48.6444C9.65103 44.1157 12.8284 40.4314 16.7339 40.4314C18.1169 40.4314 19.4876 40.7237 20.7715 41.2829C19.7122 41.9954 18.6112 42.6335 17.4709 43.1843L16.5176 43.6447C15.3849 44.1917 14.5037 45.2175 14.0362 46.5331C13.5689 47.8487 13.5712 49.2966 14.043 50.61C14.7584 52.6025 16.4236 53.89 18.285 53.89C18.892 53.89 19.4857 53.7518 20.0497 53.4795L21.0032 53.0191C23.2463 51.9358 25.4105 50.5816 27.449 49.0023C27.9414 50.5008 28.1915 52.0811 28.1915 53.7176V63.6682C28.1915 64.3687 28.6813 64.9365 29.2853 64.9365C29.8892 64.9365 30.379 64.3687 30.379 63.6682V53.7175C30.379 51.5465 30.0099 49.4575 29.282 47.493C30.8653 46.1047 32.3557 44.5761 33.725 42.9261C34.1439 42.4214 34.1306 41.6185 33.6954 41.1327C33.2602 40.647 32.5677 40.6624 32.1489 41.1671C28.7773 45.2298 24.6323 48.5184 20.1622 50.6773L19.2088 51.1376C18.9127 51.2806 18.6018 51.3531 18.2851 51.3531C17.3098 51.3531 16.4373 50.6786 16.0625 49.6346C15.8153 48.9465 15.8141 48.1881 16.059 47.499C16.3038 46.8098 16.7653 46.2726 17.3587 45.9861L18.312 45.5257C27.087 41.2876 33.7866 32.3983 36.2331 21.7468L36.6144 20.0867C36.7799 19.3666 37.1772 18.7641 37.7335 18.3905C38.2897 18.0167 38.938 17.9168 39.5587 18.1087C40.1799 18.3006 40.6994 18.7613 41.0215 19.4061C41.3437 20.0511 41.43 20.8028 41.2647 21.523L40.8834 23.1831C40.164 26.315 39.116 29.364 37.7683 32.2453C37.4802 32.8609 37.6773 33.6309 38.2082 33.9648C38.7391 34.299 39.403 34.0704 39.6911 33.4547C40.7384 31.2158 41.6143 28.8806 42.3088 26.4851L42.7174 26.7587C43.742 27.4447 44.8757 27.8266 46.0402 27.8862C46.7867 32.6558 49.195 36.8789 52.7966 39.5551C53.3541 39.9693 53.9877 40.1741 54.6195 40.1741C55.364 40.1741 56.1059 39.8897 56.7176 39.3281C57.4751 38.6327 57.9404 37.5923 57.9941 36.4738C58.0478 35.3553 57.6852 34.2614 56.999 33.4726ZM25.0167 12.3808L24.6113 11.9108C22.7649 9.76965 22.7649 6.28591 24.6113 4.1449C25.5058 3.10769 26.6949 2.53658 27.9599 2.53658C29.2248 2.53658 30.414 3.10769 31.3085 4.14503L31.7138 4.61506C33.5603 6.75619 33.5603 10.2399 31.7138 12.3809C30.8194 13.4181 29.6301 13.9894 28.3653 13.9894C27.1004 13.9893 25.9113 13.4181 25.0167 12.3808ZM25.6084 21.8057C29.5725 20.1436 32.8805 16.6719 34.6847 12.281C35.0173 11.4714 35.8557 11.1265 36.5541 11.5122C36.8923 11.699 37.1476 12.0273 37.2727 12.4369C37.398 12.8463 37.3781 13.2876 37.217 13.6799C35.967 16.7222 34.0969 19.4282 31.8088 21.5055C30.2329 22.936 28.4705 24.0652 26.5704 24.8616C26.1805 25.025 25.7668 24.9853 25.4053 24.7497C25.044 24.5143 24.7999 24.1254 24.7175 23.6548C24.5807 22.871 24.9636 22.0761 25.6084 21.8057ZM22.5247 24.3149C22.4515 25.0333 21.924 25.5926 21.2851 25.5926C20.6812 25.5926 20.1914 26.1604 20.1914 26.8609C20.1914 27.5614 20.6812 28.1292 21.2851 28.1292C21.9531 28.1292 22.5766 27.9063 23.1047 27.5224C23.0212 28.9061 22.5258 30.2623 21.6156 31.3178C19.6113 33.6419 16.3499 33.6421 14.3456 31.3178C12.1011 28.7151 12.1011 24.4804 14.3456 21.8779L17.5452 18.1678L21.6156 22.8876C21.9879 23.3193 22.2906 23.8014 22.5247 24.3149ZM4.39545 33.5998C4.39545 31.8474 5.00106 30.2198 6.10082 29.0166C6.53887 28.5372 6.55954 27.7382 6.14796 27.2282C6.13199 27.2084 6.1157 27.1894 6.09896 27.1711C3.53718 24.0983 3.5701 19.1556 6.18067 16.1285C7.46353 14.6408 9.16934 13.8215 10.9837 13.8215C12.7981 13.8215 14.5038 14.6408 15.7866 16.1285L15.9985 16.3742L12.7989 20.0843C9.70178 23.6758 9.70178 29.5199 12.7989 33.1114C13.4905 33.9134 14.2877 34.5193 15.1385 34.9332C14.6093 37.7687 12.4302 39.9001 9.82887 39.9001C6.83276 39.9001 4.39545 37.0738 4.39545 33.5998ZM16.4825 37.8996C16.8324 37.1744 17.0964 36.3869 17.2592 35.5549C17.499 35.5822 17.7397 35.5962 17.9806 35.5962C18.808 35.5962 19.6353 35.4348 20.4244 35.1126V38.4849C19.228 38.0964 17.9851 37.8946 16.7339 37.8946C16.6498 37.8949 16.5662 37.8971 16.4825 37.8996ZM22.9717 39.6425C22.8527 39.5715 22.7326 39.503 22.6117 39.4361V33.6887C22.8015 33.509 22.9855 33.3167 23.1623 33.1115C24.528 31.528 25.2393 29.4695 25.2993 27.3901C25.5599 27.4588 25.8258 27.4953 26.0928 27.4953C26.5045 27.4953 26.9176 27.4131 27.314 27.247C29.4324 26.3592 31.3984 25.0994 33.1571 23.5027C33.3063 23.3673 33.4535 23.229 33.5996 23.0889C31.6608 29.7761 27.8946 35.5897 22.9717 39.6425ZM43.811 24.562L42.9602 23.9924C42.9723 23.9403 42.9852 23.8884 42.9972 23.8363L43.3784 22.1762C43.6943 20.8014 43.5295 19.3661 42.9144 18.1349C42.2994 16.9037 41.3077 16.024 40.122 15.6578C39.7137 15.5316 39.2994 15.4732 38.8882 15.4777C38.9925 15.2438 39.0943 15.0086 39.192 14.771C39.6045 13.7672 39.6551 12.6371 39.3346 11.5891C39.0142 10.5412 38.3609 9.70053 37.4952 9.22225C37.4361 9.18966 37.3765 9.15935 37.3167 9.13068C38.7376 8.46711 40.3878 8.55792 41.7932 9.49874L48.9316 14.2779C49.8076 14.8644 50.4966 15.7299 50.9388 16.7441C50.6242 16.6557 50.2961 16.6078 49.9584 16.6078C47.6615 16.6078 45.7928 18.7746 45.7928 21.4382V24.7044C45.7928 24.911 45.7965 25.1169 45.8026 25.3222C45.1055 25.2327 44.4301 24.9763 43.811 24.562ZM55.8099 36.3326C55.7907 36.733 55.6307 37.0906 55.3597 37.3394C54.9609 37.7055 54.405 37.7376 53.9767 37.4195C50.2217 34.6293 47.98 29.8761 47.98 24.7047V21.4384C47.98 20.1736 48.8673 19.1446 49.9581 19.1446C51.049 19.1446 51.9364 20.1736 51.9364 21.4384V25.4729C51.9364 29.1283 53.2203 32.7007 55.459 35.2742C55.7046 35.5563 55.8292 35.9322 55.8099 36.3326Z" fill="#1A3B42"/>
<path d="M36.0989 38.9429C35.8112 38.9429 35.529 38.8084 35.3256 38.5713C35.1223 38.3354 35.0051 38.0082 35.0051 37.6746C35.0051 37.341 35.1222 37.0138 35.3256 36.7779C35.529 36.542 35.8112 36.4063 36.0989 36.4063C36.3865 36.4063 36.6687 36.542 36.8722 36.7779C37.0755 37.0138 37.1926 37.341 37.1926 37.6746C37.1926 38.0094 37.0756 38.3354 36.8722 38.5713C36.6687 38.8084 36.3865 38.9429 36.0989 38.9429Z" fill="#1A3B42"/>
</g>
</g>
<defs>
<filter id="filter0_d" x="0" y="0" width="60" height="69.9365" filterUnits="userSpaceOnUse" color-interpolation-filters="sRGB">
<feFlood flood-opacity="0" result="BackgroundImageFix"/>
<feColorMatrix in="SourceAlpha" type="matrix" values="0 0 0 0 0 0 0 0 0 0 0 0 0 0 0 0 0 0 127 0"/>
<feOffset dy="3"/>
<feGaussianBlur stdDeviation="1"/>
<feColorMatrix type="matrix" values="0 0 0 0 0 0 0 0 0 0 0 0 0 0 0 0 0 0 0.12 0"/>
<feBlend mode="normal" in2="BackgroundImageFix" result="effect1_dropShadow"/>
<feBlend mode="normal" in="SourceGraphic" in2="effect1_dropShadow" result="shape"/>
</filter>
<clipPath id="clip0">
<rect x="2" width="56" height="64.9365" fill="white"/>
</clipPath>
</defs>
</svg>
